<svg xmlns="http://www.w3.org/2000/svg" width="1155" height="315" viewBox="0 0 1155 315"><g fill="none" fill-rule="evenodd"><path fill="#000" d="M361.79 140h-68.58c-9.999 0-18.21 8.34-18.21 18.495C275 168.66 283.211 177 293.21 177h68.58c9.999 0 18.21-8.34 18.21-18.505C380 148.34 371.965 140 361.79 140m171.674 18.265L594 82.675c6.246-7.51 4.998-19.482-2.505-25.92-3.211-2.507-7.493-3.755-11.245-3.755-5.716 0-10.715 2.507-13.936 6.97l-64.278 80.071h-46.601v-68.63c0-10.007-8.22-18.234-18.218-18.234S419 61.404 419 71.41v173.355c0 10.007 8.22 18.234 18.218 18.234s18.218-8.227 18.218-18.234v-68.09h45.884l64.288 79.355c3.212 4.462 8.75 6.969 13.926 6.969 4.469 0 8.21-1.258 11.245-3.755 3.752-3.214 6.256-7.51 6.973-11.972.707-5.004-.717-9.476-3.751-13.231l-60.537-75.777zm127.334-26.88c0-27.8 20.222-42.33 40.454-42.33h38.486c20.232 0 40.454 14.53 40.454 42.33v53.8c0 27.799-20.222 42.33-40.454 42.33h-38.486c-20.232 0-40.454-14.531-40.454-42.33v-53.8zM739.738 53h-38.486c-22.733 0-42.246 8.79-56.748 25.293C631.794 92.823 625 112.375 625 132.104v53.802c0 19.551 6.98 39.28 19.504 53.801C659.006 256.211 678.519 265 701.252 265h38.486c22.733 0 42.246-8.79 56.748-25.293 12.71-14.52 19.514-34.072 19.514-53.801v-53.802c0-19.551-6.99-39.28-19.514-53.811C781.984 61.789 761.94 53 739.738 53zm393.589 25.26C1118.815 61.777 1099.289 53 1076.542 53h-15.22c-22.748 0-42.274 8.778-56.785 25.26-.72.718-1.251 1.25-1.97 1.97-.71-.72-1.252-1.252-1.97-1.97C986.084 61.777 966.568 53 943.811 53H929.31c-22.747 0-42.273 8.778-56.784 25.26C859.807 92.77 853 112.285 853 131.99v113.745c0 10.03 8.246 18.265 18.275 18.265 10.029 0 18.264-8.236 18.264-18.265V131.99c0-27.762 20.245-42.264 40.49-42.264h15.221c20.245 0 40.48 14.502 40.48 42.264v113.745c0 10.03 8.236 18.265 18.275 18.265 10.029 0 18.265-8.236 18.265-18.265V131.99c0-27.762 20.245-42.264 40.48-42.264h15.23c20.236 0 40.48 14.502 40.48 42.264v113.745c0 10.03 8.236 18.265 18.265 18.265 10.04 0 18.275-8.236 18.275-18.265V131.99c-1.438-20.235-8.955-39.761-21.673-53.73"/><path fill="#0FD2FF" d="M137.855 176.964L8.036 47.145c-10.715-10.715-10.715-27.677 0-38.392l.707-.717c10.716-10.715 27.687-10.715 38.392 0l129.829 129.819c10.715 10.715 10.715 27.677 0 38.392l-.717.717c-10.715 10.715-27.677 10.715-38.392 0"/><path fill="#C382FA" d="M267.855 306.964L138.036 177.145c-10.715-10.715-10.715-27.677 0-38.392l.717-.717c10.715-10.715 27.677-10.715 38.392 0l129.819 129.829c10.715 10.705 10.715 27.667 0 38.382l-.717.717c-10.715 10.715-27.677 10.715-38.392 0"/><path fill="#0082FA" d="M138.83 177.96L55.04 94.17c-10.72-10.721-10.72-27.692 0-38.412l.708-.718c10.72-10.72 27.7-10.72 38.412 0l83.8 83.79c10.72 10.721 10.72 27.692 0 38.412l-.718.718c-10.72 10.72-27.69 10.72-38.411 0"/><path fill="#8250FA" d="M217.297 256.55l-79.213-79.159c-10.779-10.77-10.779-27.821 0-38.592l.721-.72c10.779-10.772 27.84-10.772 38.619 0l78.492 78.437c10.779 10.771 10.779 27.831 0 38.593l-.721.72c-10.59 10.771-27.84 10.771-37.898.721"/><path fill="#FA0064" d="M267.941 9.052L9.051 267.766c-10.735 10.736-10.735 27.73 0 38.466l.72.709c10.735 10.745 27.73 10.745 38.465 0L306.948 48.236c10.736-10.735 10.736-27.73 0-38.466l-.718-.718c-10.559-10.736-27.553-10.736-38.289 0"/><path fill="#BE0064" d="M211.786 64.528L44.048 232.68c-10.73 10.756-10.73 27.784 0 38.54l.708.72c10.731 10.747 27.717 10.747 38.448 0l167.748-168.152c10.73-10.757 10.73-27.784 0-38.54l-.718-.72c-10.73-10.037-28.258-10.037-38.448 0"/><path fill="#000" d="M197.304 157.884l34.64 34.639c10.741 10.742 10.741 27.746 0 38.488l-.718.72c-10.74 10.741-27.743 10.741-38.483 0l-34.637-34.643-49.849 49.855c-10.74 10.743-27.742 10.743-38.483 0l-.719-.709c-10.74-10.742-10.74-27.746 0-38.498l49.851-49.853-41.612-41.62c-10.741-10.741-10.741-27.746 0-38.488l.718-.718c10.731-10.743 27.743-10.743 38.473 0l41.62 41.625 25.868-25.87c10.74-10.742 27.743-10.742 38.483 0l.719.72c10.74 10.741 10.74 27.745 0 38.478l-25.87 25.874z"/></g></svg>