<?xml version="1.0" encoding="utf-8"?>
<!-- Generator: Adobe Illustrator 23.0.1, SVG Export Plug-In . SVG Version: 6.00 Build 0)  -->
<svg version="1.1"
	 id="svg2" xmlns:cc="http://creativecommons.org/ns#" xmlns:dc="http://purl.org/dc/elements/1.1/" xmlns:inkscape="http://www.inkscape.org/namespaces/inkscape" xmlns:rdf="http://www.w3.org/1999/02/22-rdf-syntax-ns#" xmlns:sodipodi="http://sodipodi.sourceforge.net/DTD/sodipodi-0.dtd" xmlns:svg="http://www.w3.org/2000/svg"
	 xmlns="http://www.w3.org/2000/svg" xmlns:xlink="http://www.w3.org/1999/xlink" x="0px" y="0px" viewBox="0 0 48 48"
	 style="enable-background:new 0 0 48 48;" xml:space="preserve">
<style type="text/css">
	.st0{enable-background:new    ;}
	.st1{fill:#949494;}
	.st2{fill:none;stroke:#949494;stroke-width:1.5;stroke-linecap:round;stroke-linejoin:round;}
</style>
<g>
	<g class="st0">
		<path class="st1" d="M32,23.6c0.7,0.4,1.2,0.9,1.6,1.6c0.4,0.7,0.6,1.5,0.6,2.4S34,29.3,33.6,30s-1,1.3-1.7,1.7
			c-0.7,0.4-1.6,0.6-2.6,0.6c-0.9,0-1.7-0.2-2.5-0.5c-0.8-0.3-1.5-0.7-2.1-1.2c-0.2-0.2-0.3-0.4-0.3-0.7c0-0.2,0.1-0.4,0.2-0.5
			s0.2-0.2,0.4-0.2c0.2,0,0.4,0.1,0.6,0.2c0.6,0.5,1.2,0.9,1.8,1.1c0.6,0.2,1.2,0.4,1.9,0.4c1,0,1.8-0.3,2.4-0.9s0.9-1.4,0.9-2.4
			s-0.3-1.7-0.9-2.3c-0.6-0.6-1.4-0.9-2.3-0.9c-1.3,0-2.3,0.5-3.1,1.4c-0.2,0.2-0.4,0.3-0.7,0.3c-0.2,0-0.4-0.1-0.5-0.2
			s-0.2-0.3-0.2-0.5v-7.1c0-0.2,0.1-0.4,0.2-0.6s0.3-0.2,0.6-0.2H33c0.7,0,0.8,0.5,0.8,0.7s-0.1,0.4-0.2,0.5
			c-0.1,0.1-0.3,0.2-0.6,0.2h-6.4v5.2c0.4-0.4,0.8-0.7,1.4-0.9c0.5-0.2,1.1-0.3,1.7-0.3C30.5,23,31.3,23.2,32,23.6z"/>
	</g>
</g>
<g>
	<path class="st2" d="M33.5,11.3c5.1,3.5,8,9.8,6.9,16.4C39,36.8,30.4,43,21.3,41.5C12.2,40.1,6,31.5,7.4,22.4
		c1.5-9,9.9-15.2,19-13.9"/>
	<polyline class="st2" points="21.7,4 26.4,8.5 21.9,13.2 	"/>
</g>
<path class="st1" d="M22.3,31.4c0,0.2-0.1,0.4-0.2,0.5s-0.3,0.2-0.6,0.2h-6.8c-0.3,0-0.5-0.1-0.6-0.2s-0.2-0.3-0.2-0.5
	s0.1-0.4,0.2-0.5s0.3-0.2,0.6-0.2h2.6v-11L15,21.1c-0.1,0.1-0.2,0.1-0.3,0.1c-0.2,0-0.4-0.1-0.5-0.3c-0.1-0.2-0.2-0.4-0.2-0.6
	c0-0.3,0.1-0.5,0.3-0.6l3.1-2c0.2-0.2,0.5-0.2,0.7-0.2s0.4,0.1,0.6,0.2c0.2,0.2,0.2,0.4,0.2,0.6v12.4h2.6
	C22.2,30.7,22.3,31.2,22.3,31.4z"/>
</svg>
