<?xml version="1.0" encoding="utf-8"?>
<!-- Generator: Adobe Illustrator 23.0.1, SVG Export Plug-In . SVG Version: 6.00 Build 0)  -->
<svg version="1.1"
	 id="svg2" xmlns:cc="http://creativecommons.org/ns#" xmlns:dc="http://purl.org/dc/elements/1.1/" xmlns:inkscape="http://www.inkscape.org/namespaces/inkscape" xmlns:rdf="http://www.w3.org/1999/02/22-rdf-syntax-ns#" xmlns:sodipodi="http://sodipodi.sourceforge.net/DTD/sodipodi-0.dtd" xmlns:svg="http://www.w3.org/2000/svg"
	 xmlns="http://www.w3.org/2000/svg" xmlns:xlink="http://www.w3.org/1999/xlink" x="0px" y="0px" viewBox="0 0 48 48"
	 style="enable-background:new 0 0 48 48;" xml:space="preserve">
<style type="text/css">
	.st0{fill:none;stroke:#949494;stroke-width:1.5;stroke-linecap:round;stroke-linejoin:round;}
	.st1{enable-background:new    ;}
	.st2{fill:#949494;}
</style>
<path id="path6575" inkscape:connector-curvature="0" sodipodi:nodetypes="cccccccccccccccccccc" class="st0" d="M27.9,6L9,10.3
	c-1.4,0.3-2.6,0.8-2.6,3v15.6c0,1.8,0.6,2.5,1.7,3.2L28,41.5c1.1,0.6,2.3,0.7,3.6,0l9-5.1c0.8-0.7,1.1-1,1.1-2.5v-3.6
	c0-0.8-0.3-1.4-0.8-2.2l-2-2.3c-1.1-1.1-1-2.9,0-3.9l1.8-1.5c0.7-0.6,1-1.4,1-2.3v-4.4c0-1.5-1.2-2.5-2.4-2.5H23.9
	c-1,0-1.4-1.4,0-1.9l4.2-0.7"/>
<g>
	<g class="st1">
		<path class="st2" d="M23.3,30.4c0,0.2-0.1,0.4-0.2,0.5s-0.3,0.2-0.6,0.2h-6.8c-0.3,0-0.5-0.1-0.6-0.2s-0.2-0.3-0.2-0.5
			s0.1-0.4,0.2-0.5s0.3-0.2,0.6-0.2h2.6v-11L16,20.1c-0.1,0.1-0.2,0.1-0.3,0.1c-0.2,0-0.4-0.1-0.5-0.3c-0.1-0.2-0.2-0.4-0.2-0.6
			c0-0.3,0.1-0.5,0.3-0.6l3.1-2c0.2-0.2,0.5-0.2,0.7-0.2s0.4,0.1,0.6,0.2c0.2,0.2,0.2,0.4,0.2,0.6v12.4h2.6
			C23.2,29.7,23.3,30.2,23.3,30.4z"/>
		<path class="st2" d="M35.1,16.8c0.1,0.1,0.2,0.3,0.2,0.5s-0.1,0.4-0.2,0.6l-6.9,12.9c-0.2,0.3-0.4,0.5-0.7,0.5
			c-0.2,0-0.4-0.1-0.6-0.2s-0.3-0.3-0.3-0.6c0-0.2,0-0.3,0.1-0.5l6.6-12h-7.1c-0.2,0-0.8-0.1-0.8-0.7c0-0.2,0.1-0.4,0.2-0.5
			s0.3-0.2,0.6-0.2h8.4C34.8,16.6,35,16.7,35.1,16.8z"/>
	</g>
</g>
</svg>
