<svg xmlns="http://www.w3.org/2000/svg" width="1792" height="315" viewBox="0 0 1792 315"><g fill="none" fill-rule="evenodd"><path d="M0 0h1792v315H0z"/><path fill="#000" d="M998.79 140h-68.58c-9.999 0-18.21 8.34-18.21 18.495C912 168.66 920.211 177 930.21 177h68.58c9.999 0 18.21-8.34 18.21-18.505 0-10.155-8.035-18.495-18.21-18.495m171.674 18.265L1231 82.675c6.246-7.51 4.998-19.482-2.505-25.92-3.211-2.507-7.493-3.755-11.245-3.755-5.716 0-10.715 2.507-13.936 6.97l-64.278 80.071h-46.601v-68.63c0-10.007-8.22-18.234-18.218-18.234S1056 61.404 1056 71.41v173.355c0 10.007 8.22 18.234 18.218 18.234s18.218-8.227 18.218-18.234v-68.09h45.884l64.288 79.355c3.212 4.462 8.75 6.969 13.926 6.969 4.469 0 8.21-1.258 11.245-3.755 3.752-3.214 6.256-7.51 6.973-11.972.707-5.004-.717-9.476-3.751-13.231l-60.537-75.777zm127.334-26.88c0-27.8 20.222-42.33 40.454-42.33h38.486c20.232 0 40.454 14.53 40.454 42.33v53.8c0 27.799-20.222 42.33-40.454 42.33h-38.486c-20.232 0-40.454-14.531-40.454-42.33v-53.8zM1376.738 53h-38.486c-22.733 0-42.246 8.79-56.748 25.293-12.71 14.53-19.504 34.082-19.504 53.811v53.802c0 19.551 6.98 39.28 19.504 53.801 14.502 16.504 34.015 25.293 56.748 25.293h38.486c22.733 0 42.246-8.79 56.748-25.293 12.71-14.52 19.514-34.072 19.514-53.801v-53.802c0-19.551-6.99-39.28-19.514-53.811C1418.984 61.789 1398.94 53 1376.738 53zm393.589 25.26C1755.815 61.777 1736.289 53 1713.542 53h-15.22c-22.748 0-42.274 8.778-56.785 25.26-.72.718-1.251 1.25-1.97 1.97-.71-.72-1.252-1.252-1.97-1.97-14.512-16.482-34.028-25.26-56.785-25.26h-14.502c-22.747 0-42.273 8.778-56.784 25.26-12.719 14.51-19.526 34.026-19.526 53.73v113.745c0 10.03 8.246 18.265 18.275 18.265 10.029 0 18.264-8.236 18.264-18.265V131.99c0-27.762 20.245-42.264 40.49-42.264h15.221c20.245 0 40.48 14.502 40.48 42.264v113.745c0 10.03 8.236 18.265 18.275 18.265 10.029 0 18.265-8.236 18.265-18.265V131.99c0-27.762 20.245-42.264 40.48-42.264h15.23c20.236 0 40.48 14.502 40.48 42.264v113.745c0 10.03 8.236 18.265 18.265 18.265 10.04 0 18.275-8.236 18.275-18.265V131.99c-1.438-20.235-8.955-39.761-21.673-53.73"/><path fill="#0FD2FF" d="M774.855 176.964L645.036 47.145c-10.715-10.715-10.715-27.677 0-38.392l.707-.717c10.716-10.715 27.687-10.715 38.392 0l129.829 129.819c10.715 10.715 10.715 27.677 0 38.392l-.717.717c-10.715 10.715-27.677 10.715-38.392 0"/><path fill="#C382FA" d="M904.855 306.964L775.036 177.145c-10.715-10.715-10.715-27.677 0-38.392l.717-.717c10.715-10.715 27.677-10.715 38.392 0l129.819 129.829c10.715 10.705 10.715 27.667 0 38.382l-.717.717c-10.715 10.715-27.677 10.715-38.392 0"/><path fill="#0082FA" d="M775.83 177.96l-83.79-83.79c-10.72-10.721-10.72-27.692 0-38.412l.708-.718c10.72-10.72 27.7-10.72 38.412 0l83.8 83.79c10.72 10.721 10.72 27.692 0 38.412l-.718.718c-10.72 10.72-27.69 10.72-38.411 0"/><path fill="#8250FA" d="M854.297 256.55l-79.213-79.159c-10.779-10.77-10.779-27.821 0-38.592l.721-.72c10.779-10.772 27.84-10.772 38.619 0l78.492 78.437c10.779 10.771 10.779 27.831 0 38.593l-.721.72c-10.59 10.771-27.84 10.771-37.898.721"/><path fill="#FA0064" d="M904.941 9.052l-258.89 258.714c-10.735 10.736-10.735 27.73 0 38.466l.72.709c10.735 10.745 27.73 10.745 38.465 0L943.948 48.236c10.736-10.735 10.736-27.73 0-38.466l-.718-.718c-10.559-10.736-27.553-10.736-38.289 0"/><path fill="#BE0064" d="M848.786 64.528L681.048 232.68c-10.73 10.756-10.73 27.784 0 38.54l.708.72c10.731 10.747 27.717 10.747 38.448 0l167.748-168.152c10.73-10.757 10.73-27.784 0-38.54l-.718-.72c-10.73-10.037-28.258-10.037-38.448 0"/><path fill="#000" d="M834.304 157.884l34.64 34.639c10.741 10.742 10.741 27.746 0 38.488l-.718.72c-10.74 10.741-27.743 10.741-38.483 0l-34.637-34.643-49.849 49.855c-10.74 10.743-27.742 10.743-38.483 0l-.719-.709c-10.74-10.742-10.74-27.746 0-38.498l49.851-49.853-41.612-41.62c-10.741-10.741-10.741-27.746 0-38.488l.718-.718c10.731-10.743 27.743-10.743 38.473 0l41.62 41.625 25.868-25.87c10.74-10.742 27.743-10.742 38.483 0l.719.72c10.74 10.741 10.74 27.745 0 38.478l-25.87 25.874zM8.256 83.761c1.96 1.86 1.96 4.99 0 6.947a4.742 4.742 0 0 1-6.86 0c-1.861-1.957-1.861-5.088 0-6.947a4.742 4.742 0 0 1 6.86 0zm.588 20.352v43.638c0 2.348-1.666 4.11-4.018 4.11-2.058 0-3.92-1.762-3.92-4.11v-43.638c0-2.25 1.666-4.11 3.92-4.11s4.018 1.86 4.018 4.11zm60.858 15.165v28.473c0 2.348-1.568 4.11-3.92 4.11-2.254 0-4.018-1.762-4.018-4.11V119.67c0-8.513-5.586-12.818-13.132-12.818-5.39 0-9.898 1.076-13.524 3.229v37.67c0 2.348-1.666 4.11-3.92 4.11s-4.018-1.762-4.018-4.11v-39.627c0-1.468.588-2.642 1.764-3.522 3.528-2.642 10.878-5.284 19.894-5.284 13.622 0 20.874 7.045 20.874 19.96zm41.846 31.408c-2.842 1.076-6.272 1.663-10.094 1.663-10.094 0-15.092-6.457-15.092-16.144V93.643c0-2.25 1.666-4.011 3.92-4.011s4.018 1.761 4.018 4.011v8.023h14.798c1.96 0 3.724 1.664 3.724 3.62 0 1.958-1.764 3.62-3.724 3.62H94.3V136.5c0 5.185 2.45 8.512 7.546 8.512 1.176 0 3.822-.587 7.84-1.761 3.136-.783 5.096.978 5.096 3.62 0 1.86-1.078 3.131-3.234 3.816zm56.742-30.136v2.936c0 3.815-1.96 5.674-5.782 5.674h-29.302v1.566c0 9.002 5.88 14.383 14.602 14.383 3.234 0 7.154-.88 11.956-2.544 3.234-1.272 5.684.685 5.684 3.131 0 1.468-.686 2.642-2.156 3.522-3.136 1.86-9.8 3.131-15.582 3.131-13.328 0-21.56-8.219-22.246-21.036-.294-4.599-.196-8.512.098-11.741 1.078-12.524 9.604-20.254 21.658-20.254 6.37 0 11.466 1.957 15.288 5.969 3.822 3.913 5.782 9.001 5.782 15.263zm-35.084 1.957h26.068c.784 0 1.176-.391 1.274-1.174.49-8.904-4.704-14.872-13.23-14.872-9.408 0-14.406 6.164-14.112 16.046zm57.722-36.495v61.739c0 2.348-1.666 4.11-4.018 4.11-2.254 0-3.92-1.762-3.92-4.11V86.01c0-2.25 1.666-4.011 3.92-4.011s4.018 1.761 4.018 4.012zm25.774-2.25c1.96 1.858 1.96 4.99 0 6.946a4.742 4.742 0 0 1-6.86 0c-1.862-1.957-1.862-5.088 0-6.947a4.742 4.742 0 0 1 6.86 0zm.588 20.35v43.639c0 2.348-1.666 4.11-4.018 4.11-2.058 0-3.92-1.762-3.92-4.11v-43.638c0-2.25 1.666-4.11 3.92-4.11s4.018 1.86 4.018 4.11zm59.584 4.697v38.159c0 14.48-8.82 22.7-22.05 22.7-5.88 0-11.074-1.37-15.484-4.11-2.254-1.468-3.43-2.837-3.43-4.207 0-1.86 1.274-3.718 3.724-3.718 1.078 0 2.45.489 4.214 1.565 3.626 2.055 7.35 3.131 10.976 3.131 7.84 0 14.112-5.088 14.112-13.698v-.978c-4.704 2.25-9.506 3.326-14.406 3.326-12.054 0-19.502-7.436-20.286-19.47a86.27 86.27 0 0 1 0-12.329c.784-12.034 8.526-19.862 21.364-19.862 3.92 0 7.742.685 11.466 1.957 3.724 1.272 6.468 2.446 8.134 3.62 1.078.88 1.666 2.153 1.666 3.914zm-20.972-1.957c-8.33 0-12.936 4.305-13.72 12.818-.294 3.326-.294 7.142 0 11.35.588 8.414 4.998 12.621 13.132 12.621 5.978 0 11.564-2.152 13.622-4.011v-29.255c0-.294-5.978-3.425-13.034-3.523zm79.968 13.698v2.936c0 3.815-1.96 5.674-5.782 5.674h-29.302v1.566c0 9.002 5.88 14.383 14.602 14.383 3.234 0 7.154-.88 11.956-2.544 3.234-1.272 5.684.685 5.684 3.131 0 1.468-.686 2.642-2.156 3.522-3.136 1.86-9.8 3.131-15.582 3.131-13.328 0-21.56-8.219-22.246-21.036-.294-4.599-.196-8.512.098-11.741 1.078-12.524 9.604-20.254 21.658-20.254 6.37 0 11.466 1.957 15.288 5.969 3.822 3.913 5.782 9.001 5.782 15.263zm-35.084 1.957h26.068c.784 0 1.176-.391 1.274-1.174.49-8.904-4.704-14.872-13.23-14.872-9.408 0-14.406 6.164-14.112 16.046zm92.218-3.229v28.473c0 2.348-1.568 4.11-3.92 4.11-2.254 0-4.018-1.762-4.018-4.11V119.67c0-8.513-5.586-12.818-13.132-12.818-5.39 0-9.898 1.076-13.524 3.229v37.67c0 2.348-1.666 4.11-3.92 4.11s-4.018-1.762-4.018-4.11v-39.627c0-1.468.588-2.642 1.764-3.522 3.528-2.642 10.878-5.284 19.894-5.284 13.622 0 20.874 7.045 20.874 19.96zm41.846 31.408c-2.842 1.076-6.272 1.663-10.094 1.663-10.094 0-15.092-6.457-15.092-16.144V93.643c0-2.25 1.666-4.011 3.92-4.011s4.018 1.761 4.018 4.011v8.023H432.4c1.96 0 3.724 1.664 3.724 3.62 0 1.958-1.764 3.62-3.724 3.62h-14.798V136.5c0 5.185 2.45 8.512 7.546 8.512 1.176 0 3.822-.587 7.84-1.761 3.136-.783 5.096.978 5.096 3.62 0 1.86-1.078 3.131-3.234 3.816zm57.82-31.408v28.473c0 2.348-1.568 4.11-3.92 4.11-2.254 0-4.018-1.762-4.018-4.11V119.67c0-8.513-5.586-12.818-13.132-12.818-5.39 0-9.898 1.076-13.524 3.229v37.67c0 2.348-1.666 4.11-3.92 4.11s-4.018-1.762-4.018-4.11v-39.627c0-1.468.588-2.642 1.764-3.522 3.528-2.642 10.878-5.284 19.894-5.284 13.622 0 20.874 7.045 20.874 19.96zm30.38 28.962l-18.62-42.464c-1.176-2.838.686-5.675 3.724-5.675 1.568 0 2.842.978 3.724 2.837l15.19 34.93c.294.49.49.49.784 0l13.818-34.636c.784-2.055 2.058-3.131 3.92-3.131 3.038 0 4.9 2.935 3.724 5.675l-18.424 44.616c-3.626 8.708-9.212 15.949-13.622 18.59-1.274.783-2.45 1.175-3.528 1.175-2.058 0-3.92-1.468-3.92-3.718 0-1.566.588-2.74 1.862-3.425 5.194-3.033 9.016-7.925 11.368-14.774zm-205.016 96.18l-9.702-37.474c-.098-.294-.196-.392-.49-.392s-.49.098-.49.392l-9.996 37.376c-1.078 4.11-3.43 6.164-7.056 6.164-3.528 0-6.272-2.152-7.35-6.066l-11.368-41.094c-.784-3.034.882-5.675 3.626-5.675 1.862 0 3.136.978 3.626 2.837l11.074 41.29c.196.685.784.685.98 0l9.898-38.355c.882-3.522 3.822-5.772 7.056-5.772 3.43 0 6.174 2.25 7.056 5.87l9.898 38.257c.196.685.784.685.98 0l10.682-40.996c.392-2.055 1.666-3.131 3.92-3.131 2.744 0 4.41 2.837 3.626 5.675l-11.466 41.094c-1.176 4.011-3.626 6.066-7.252 6.066-3.822 0-6.272-2.055-7.252-6.066zm51.058 1.663l-18.62-42.464c-1.176-2.837.686-5.675 3.724-5.675 1.568 0 2.842.979 3.724 2.838l15.19 34.93c.294.489.49.489.784 0l13.818-34.637c.784-2.054 2.058-3.13 3.92-3.13 3.038 0 4.9 2.935 3.724 5.674l-18.424 44.617c-3.626 8.708-9.212 15.948-13.622 18.59-1.274.783-2.45 1.174-3.528 1.174-2.058 0-3.92-1.468-3.92-3.718 0-1.566.588-2.74 1.862-3.425 5.194-3.033 9.016-7.925 11.368-14.774zm79.674-29.549a82.218 82.218 0 0 1 0 13.894c-1.078 12.23-8.82 19.765-21.658 19.765-3.822 0-7.546-.685-11.172-1.957-3.626-1.272-6.37-2.642-8.232-3.914-1.078-.685-1.568-1.761-1.568-3.229v-57.238c0-2.25 1.666-4.11 3.92-4.11s4.018 1.86 4.018 4.11v16.437c4.704-2.054 9.408-3.13 14.112-3.13 12.25 0 19.502 7.142 20.58 19.372zm-8.036 13.307c.294-3.718.294-7.925 0-12.72-.49-8.316-4.802-12.523-12.838-12.523-5.292 0-9.898 1.174-13.818 3.424v30.723c1.176.88 3.038 1.859 5.684 2.74 2.646.88 4.998 1.271 7.252 1.271 8.33 0 12.936-4.305 13.72-12.915zm66.542-13.307c.294 4.697.294 9.296 0 13.894-.294 5.773-2.548 10.47-6.664 14.187-4.018 3.719-9.114 5.578-15.19 5.578-5.978 0-11.074-1.86-15.19-5.578s-6.37-8.414-6.664-14.187a109.538 109.538 0 0 1 0-13.894c.294-5.674 2.548-10.273 6.566-13.893 4.116-3.62 9.212-5.48 15.288-5.48 6.076 0 11.172 1.762 15.19 5.382 4.116 3.62 6.37 8.219 6.664 13.991zm-35.77.588a93.241 93.241 0 0 0 0 12.817c.686 7.73 6.076 12.817 13.916 12.817 7.84 0 13.23-5.087 13.916-12.817a93.24 93.24 0 0 0 0-12.817c-.49-7.437-5.782-12.524-13.916-12.524s-13.426 5.087-13.916 12.524zm5.488-31.702l13.328-6.849c.686-.293 1.176-.391 1.666-.391a3.302 3.302 0 0 1 3.332 3.327c0 1.272-.588 2.25-1.862 2.935l-13.23 6.849c-.49.293-1.078.49-1.764.49-1.862 0-3.234-1.469-3.234-3.328 0-1.37.588-2.348 1.764-3.033zm69.874 12.818c2.058.489 3.136 1.76 3.136 3.718 0 1.859-1.47 3.62-3.92 3.62-.49 0-1.666-.098-3.332-.391a25.274 25.274 0 0 0-4.41-.392c-5.292.098-7.938 3.033-7.938 8.806v32.093c0 2.25-1.764 4.011-4.018 4.011-2.254 0-4.018-1.76-4.018-4.011v-32.973c0-9.687 5.782-15.558 15.974-15.558 3.43 0 6.272.392 8.526 1.077z"/></g></svg>