<?xml version="1.0" encoding="UTF-8" standalone="no"?>
<!-- Generator: Adobe Illustrator 19.2.1, SVG Export Plug-In . SVG Version: 6.00 Build 0)  -->

<svg
   xmlns:dc="http://purl.org/dc/elements/1.1/"
   xmlns:cc="http://creativecommons.org/ns#"
   xmlns:rdf="http://www.w3.org/1999/02/22-rdf-syntax-ns#"
   xmlns:svg="http://www.w3.org/2000/svg"
   xmlns="http://www.w3.org/2000/svg"
   xmlns:sodipodi="http://sodipodi.sourceforge.net/DTD/sodipodi-0.dtd"
   xmlns:inkscape="http://www.inkscape.org/namespaces/inkscape"
   version="1.1"
   id="Warstwa_1"
   x="0px"
   y="0px"
   viewBox="0 0 578.33588 478.70001"
   xml:space="preserve"
   inkscape:version="0.91 r13725"
   sodipodi:docname="ikona2.svg"
   width="578.33588"
   height="478.70001"><metadata
     id="metadata19"><rdf:RDF><cc:Work
         rdf:about=""><dc:format>image/svg+xml</dc:format><dc:type
           rdf:resource="http://purl.org/dc/dcmitype/StillImage" /><dc:title></dc:title></cc:Work></rdf:RDF></metadata><defs
     id="defs17" /><sodipodi:namedview
     pagecolor="#ffffff"
     bordercolor="#666666"
     borderopacity="1"
     objecttolerance="10"
     gridtolerance="10"
     guidetolerance="10"
     inkscape:pageopacity="0"
     inkscape:pageshadow="2"
     inkscape:window-width="1920"
     inkscape:window-height="1017"
     id="namedview15"
     showgrid="false"
     fit-margin-top="0"
     fit-margin-left="0"
     fit-margin-right="0"
     fit-margin-bottom="0"
     inkscape:zoom="0.5625"
     inkscape:cx="1132.4068"
     inkscape:cy="53.745695"
     inkscape:window-x="-8"
     inkscape:window-y="-8"
     inkscape:window-maximized="1"
     inkscape:current-layer="Warstwa_1" /><style
     type="text/css"
     id="style3">
	.st0{fill:#FFFFFF;}
</style><g
     id="g5"
     transform="translate(-289.21721,-164)"><path
       class="st0"
       d="m 722.9,276.4 c -12,0 -25.5,2 -36.8,4.9 C 651.2,212.1 579.2,164 497.3,164 c -115.5,0 -211.3,95.7 -208,211.3 0,62.7 23.1,118.8 69.3,158.5 l 3.3,3.3 0,95.7 c 0,3.3 3.3,6.6 6.6,9.9 l 3.3,0 c 3.3,0 6.6,0 9.9,-3.3 l 62.7,-59.4 3.3,0 c 16.5,3.3 33,6.6 49.5,6.6 50.7,0 97.5,-18.4 134.2,-48.8 25.2,20.3 57.1,32.5 91.5,32.5 11.5,0 23,-2.3 34.4,-4.6 l 2.3,0 43.6,41.3 c 2.3,2.3 4.6,2.3 6.9,2.3 l 2.3,0 c 2.3,-2.3 4.6,-4.6 4.6,-6.9 l 0,-66.6 2.3,-2.3 C 851.4,506 867.5,466.9 867.5,423.3 869.7,342.9 803.2,276.4 722.9,276.4 Z m -225.7,287 c -13.2,0 -29.7,-3.3 -42.9,-6.6 l -9.9,-3.3 c -6.6,0 -9.9,0 -13.2,3.3 L 385,603 l 0,-72.6 c 0,-3.3 0,-6.6 -3.3,-9.9 l -6.6,-6.6 c -39.6,-36.3 -62.7,-85.8 -62.7,-138.6 0,-102.3 82.5,-184.9 184.9,-184.9 102.4,0 184.9,85.8 184.9,188.2 -0.1,102.2 -82.6,184.8 -185,184.8 z m 310.6,-43.8 -4.6,4.6 c -2.3,2.3 -2.3,4.6 -2.3,6.9 l 0,50.5 -32.1,-32.1 c -2.3,-2.3 -4.6,-2.3 -9.2,-2.3 l -6.9,2.3 c -9.2,2.3 -20.7,4.6 -29.8,4.6 -30,0 -57.5,-10.2 -79.3,-27.3 39.9,-38.6 65,-92.5 65,-151.6 0,-27.1 -5.3,-53.1 -14.8,-77.1 9,-2 19.7,-3.4 29.2,-3.4 71.1,0 128.5,57.4 128.5,128.5 -0.1,36.8 -16.2,71.2 -43.7,96.4 z"
       id="path7"
       inkscape:connector-curvature="0"
       style="fill:#ffffff" /><circle
       class="st0"
       cx="414.70001"
       cy="375.20001"
       r="19.799999"
       id="circle9"
       style="fill:#ffffff" /><circle
       class="st0"
       cx="497.20001"
       cy="375.20001"
       r="19.799999"
       id="circle11"
       style="fill:#ffffff" /><circle
       class="st0"
       cx="579.79999"
       cy="375.20001"
       r="19.799999"
       id="circle13"
       style="fill:#ffffff" /></g></svg>