<?xml version="1.0" encoding="UTF-8" standalone="no"?>
<!-- Generator: Adobe Illustrator 18.1.1, SVG Export Plug-In . SVG Version: 6.00 Build 0)  -->

<svg
   xmlns:dc="http://purl.org/dc/elements/1.1/"
   xmlns:cc="http://creativecommons.org/ns#"
   xmlns:rdf="http://www.w3.org/1999/02/22-rdf-syntax-ns#"
   xmlns:svg="http://www.w3.org/2000/svg"
   xmlns="http://www.w3.org/2000/svg"
   xmlns:sodipodi="http://sodipodi.sourceforge.net/DTD/sodipodi-0.dtd"
   xmlns:inkscape="http://www.inkscape.org/namespaces/inkscape"
   version="1.1"
   id="Warstwa_1"
   x="0px"
   y="0px"
   width="184.1px"
   height="643.3px"
   viewBox="487.8 356.2 184.1 643.3"
   enable-background="new 487.8 356.2 184.1 643.3"
   xml:space="preserve"
   inkscape:version="0.91 r13725"
   sodipodi:docname="curved-line-bnw.svg"><metadata
     id="metadata13"><rdf:RDF><cc:Work
         rdf:about=""><dc:format>image/svg+xml</dc:format><dc:type
           rdf:resource="http://purl.org/dc/dcmitype/StillImage" /></cc:Work></rdf:RDF></metadata><defs
     id="defs11" /><sodipodi:namedview
     pagecolor="#ffffff"
     bordercolor="#666666"
     borderopacity="1"
     objecttolerance="10"
     gridtolerance="10"
     guidetolerance="10"
     inkscape:pageopacity="0"
     inkscape:pageshadow="2"
     inkscape:window-width="1920"
     inkscape:window-height="1017"
     id="namedview9"
     showgrid="false"
     inkscape:zoom="2.9348671"
     inkscape:cx="181.00764"
     inkscape:cy="316.1573"
     inkscape:window-x="-8"
     inkscape:window-y="-8"
     inkscape:window-maximized="1"
     inkscape:current-layer="Warstwa_1" /><path
     d="M658.6,505.3c-7.2,0-13.3,5.9-13.3,13.3v278.8c0,17.7-0.1,25.8-31.8,57.6h-0.2l-10.5,10.5l0,0l0,0L491.6,977  c-5.1,5.2-5.1,13.7,0,18.8c5.2,5.1,13.7,5.1,18.8,0l118.2-118.5c8.8-8.2,15.8-15.2,21.4-21.4l0.8-0.8h-0.1  c18.6-20.8,20.7-32.3,21.1-53.6h0.1V518.6C671.9,511.3,665.9,505.3,658.6,505.3z"
     id="path3" /><path
     fill="#BD1E66"
     d="M669.1,762.3h-21c-1.5,0-2.7-1.2-2.7-2.7V449.8c0-1.5,1.2-2.7,2.7-2.7h21c1.5,0,2.7,1.3,2.7,2.7v309.8  C671.9,761,670.6,762.3,669.1,762.3z"
     id="path5"
     style="fill:#747474;fill-opacity:1" /><path
     fill="#ED1765"
     d="M645.3,356.2v249.9c0,7.2,5.9,13.3,13.3,13.3c7.2,0,13.3-5.9,13.3-13.3V356.2"
     id="path7"
     style="fill:#8c8c8c;fill-opacity:1" /></svg>