<?xml version="1.0" encoding="utf-8"?>
<!-- Generator: Adobe Illustrator 23.0.1, SVG Export Plug-In . SVG Version: 6.00 Build 0)  -->
<svg version="1.1"
	 id="svg2" xmlns:cc="http://creativecommons.org/ns#" xmlns:dc="http://purl.org/dc/elements/1.1/" xmlns:inkscape="http://www.inkscape.org/namespaces/inkscape" xmlns:rdf="http://www.w3.org/1999/02/22-rdf-syntax-ns#" xmlns:sodipodi="http://sodipodi.sourceforge.net/DTD/sodipodi-0.dtd" xmlns:svg="http://www.w3.org/2000/svg"
	 xmlns="http://www.w3.org/2000/svg" xmlns:xlink="http://www.w3.org/1999/xlink" x="0px" y="0px" viewBox="0 0 48 48"
	 style="enable-background:new 0 0 48 48;" xml:space="preserve">
<style type="text/css">
	.st0{enable-background:new    ;}
	.st1{fill:#949494;}
	.st2{fill:none;stroke:#949494;stroke-width:1.5;stroke-linecap:round;stroke-linejoin:round;}
</style>
<g id="layer1_3_" transform="translate(-311.03725,-472.66771)" inkscape:groupmode="layer" inkscape:label="Layer 1">
	<g class="st0">
		<path class="st1" d="M335.8,495.7c0,0.3-0.3,0.4-0.5,0.4h-4.1c-0.2,0-0.3,0-0.4-0.1s-0.2-0.2-0.2-0.4c0-0.2,0.1-0.3,0.2-0.4
			l3.3-3.9h-3c-0.2,0-0.3,0-0.4-0.1s-0.1-0.2-0.1-0.3s0-0.3,0.1-0.4c0.1-0.1,0.2-0.1,0.4-0.1h4c0.2,0,0.3,0.1,0.4,0.2
			s0.2,0.3,0.2,0.5c0,0.2-0.1,0.3-0.2,0.4l-3.1,3.7h2.9C335.8,495.2,335.8,495.5,335.8,495.7z"/>
		<path class="st1" d="M339.7,490.8c0.1,0.1,0.1,0.2,0.1,0.3c0,0.2-0.1,0.3-0.3,0.4l-0.9,0.5v3.5c0,0.2-0.1,0.3-0.2,0.4
			s-0.3,0.1-0.4,0.1s-0.3,0-0.4-0.1s-0.2-0.2-0.2-0.4v-2.9l-0.4,0.3c-0.1,0.1-0.2,0.1-0.3,0.1c-0.1,0-0.2,0-0.3-0.1
			c-0.1-0.1-0.1-0.3-0.1-0.4c0-0.2,0.1-0.3,0.3-0.4l0.9-0.5v-3.4c0-0.2,0.2-0.6,0.6-0.6c0.5,0,0.5,0.5,0.5,0.7v2.7l0.5-0.4
			C339.3,490.5,339.5,490.5,339.7,490.8z"/>
	</g>
	<path id="path4189" inkscape:connector-curvature="0" class="st2" d="M343.4,492.8c0,4.8-3.8,8.8-8.4,8.8s-8.4-3.9-8.4-8.8
		c0-4.8,3.8-8.8,8.4-8.8S343.4,487.9,343.4,492.8z"/>
	<path id="path4191" inkscape:connector-curvature="0" class="st2" d="M335,479.2c-1.8,0-3.5,0.4-5.1,1.1c-6.7,2.9-9.6,10.9-7,17.9
		c0.4,1.1,0.9,2.1,1.4,3.2c2.8,4.8,6.4,9.1,10.7,12.9c4.3-3.8,7.9-8.1,10.7-12.9c0.5-1.1,1.1-2,1.4-3.2c2.6-7-0.4-15.1-7-17.9
		C338.5,479.5,336.8,479.2,335,479.2L335,479.2z"/>
</g>
</svg>
