<?xml version="1.0" encoding="utf-8"?>
<!-- Generator: Adobe Illustrator 24.0.2, SVG Export Plug-In . SVG Version: 6.00 Build 0)  -->
<svg version="1.1" id="Warstwa_1" xmlns="http://www.w3.org/2000/svg" xmlns:xlink="http://www.w3.org/1999/xlink" x="0px" y="0px"
	 viewBox="0 0 150 80" style="enable-background:new 0 0 150 80;" xml:space="preserve">
<style type="text/css">
	.st0{fill:#034EA2;}
	.st1{fill:#6E4594;}
	.st2{fill:#EF7F22;}
	.st3{fill:#FFFFFF;}
	.st4{fill:#1D1D1B;}
	.st5{fill:#737373;}
	.st6{fill:#F25022;}
	.st7{fill:#7FBA00;}
	.st8{fill:#00A4EF;}
	.st9{fill:#FFB900;}
</style>
<g>
	<path d="M86.52,15.77c-0.24,0.96-0.49,1.93-0.72,2.89c-1.04,4.36-2.08,8.71-3.13,13.07c-1.12,4.67-2.23,9.33-3.36,14
		c-0.44,1.83-1.26,3.45-2.69,4.72c-1.16,1.03-2.53,1.66-4.04,1.92c-0.95,0.16-1.93,0.26-2.9,0.27c-10.63,0.02-21.26,0.01-31.89,0
		c-0.86,0-1.7-0.15-2.49-0.51c-1.3-0.58-1.97-1.63-2.2-2.99c-0.27-1.55-0.03-3.07,0.33-4.58c0.98-4.1,1.94-8.21,2.97-12.3
		c0.57-2.29,1.76-4.22,3.8-5.52c1.26-0.8,2.65-1.25,4.14-1.35c0.7-0.04,1.4-0.06,2.1-0.06c6.82,0,13.65,0,20.47,0
		c0.14,0,0.28,0,0.48,0c-0.11,0.5-0.21,0.97-0.32,1.43c-0.44,1.83-0.88,3.65-1.31,5.49c-0.07,0.32-0.2,0.42-0.52,0.41
		c-3.55-0.01-7.11-0.01-10.66,0c-0.44,0-0.87,0.05-1.31,0.11c-0.82,0.13-1.39,0.63-1.64,1.39c-0.29,0.86-0.49,1.74-0.71,2.63
		c-0.49,2.03-0.99,4.06-1.44,6.09c-0.11,0.49-0.12,1.02-0.1,1.52c0.02,0.5,0.34,0.83,0.81,0.97c0.3,0.09,0.62,0.15,0.93,0.15
		c3.95,0.01,7.9,0.01,11.85,0c1.47,0,2.58-0.65,3.12-2.04c0.38-0.98,0.64-2.02,0.89-3.05c0.95-3.92,1.88-7.84,2.82-11.76
		c1-4.21,2.01-8.42,3.01-12.63c0.02-0.09,0.02-0.19,0.02-0.29C77.39,15.77,81.96,15.77,86.52,15.77z"/>
	<path d="M60.08,64.23c0.29-0.85,0.56-1.64,0.83-2.42c0.73-2.11,1.46-4.22,2.18-6.33c0.1-0.28,0.24-0.36,0.52-0.36
		c2.96,0.01,5.92,0.04,8.89-0.01c2.66-0.05,5.05-0.92,7.05-2.71c1.28-1.15,1.93-2.62,2.33-4.28c1.69-7.02,3.43-14.03,5.15-21.05
		c0.11-0.47,0.25-0.93,0.34-1.4c0.05-0.28,0.19-0.34,0.45-0.34c2.65,0.01,5.31,0.01,7.96,0.01c1.5,0,3.01,0,4.51,0
		c0.28,0,0.39,0.04,0.31,0.37c-1.27,5.25-2.53,10.5-3.8,15.75c-0.84,3.5-1.66,7-2.55,10.48c-0.69,2.69-1.83,5.18-3.63,7.33
		c-2.13,2.55-4.82,4.17-8.09,4.77c-0.74,0.13-1.5,0.19-2.25,0.19c-6.58,0.01-13.16,0.01-19.75,0.01
		C60.41,64.23,60.28,64.23,60.08,64.23z"/>
	<path d="M97.38,52.63c0.13-0.56,0.25-1.1,0.38-1.64c1.46-6.22,2.93-12.44,4.39-18.66c0.53-2.23,1.06-4.47,1.57-6.7
		c0.05-0.22,0.15-0.3,0.38-0.3c4.21,0.01,8.42,0,12.63,0c0.07,0,0.15,0.01,0.27,0.02c-0.14,0.6-0.27,1.17-0.4,1.74
		c-1.68,7.14-3.36,14.27-5.04,21.41c-0.3,1.29-0.61,2.57-0.91,3.86c-0.05,0.2-0.12,0.3-0.35,0.3c-4.24-0.01-8.49,0-12.73,0
		C97.53,52.65,97.48,52.64,97.38,52.63z"/>
</g>
</svg>
