<?xml version="1.0" standalone="no"?>
<!DOCTYPE svg PUBLIC "-//W3C//DTD SVG 1.1//EN" "http://www.w3.org/Graphics/SVG/1.1/DTD/svg11.dtd">
<svg xmlns="http://www.w3.org/2000/svg">
<metadata>Copyright (C) 2017 by original authors @ fontello.com</metadata>
<defs>
<font id="fontello" horiz-adv-x="1000" >
<font-face font-family="fontello" font-weight="400" font-stretch="normal" units-per-em="1000" ascent="850" descent="-150" />
<missing-glyph horiz-adv-x="1000" />
<glyph glyph-name="cancel" unicode="&#xe800;" d="M897 659l-639-634 39-39 639 633-39 40z m-600 0l-39-40 639-633 39 39-310 307-329 327z" horiz-adv-x="1139" />

<glyph glyph-name="login" unicode="&#xe801;" d="M500 759c-12 0-57 0-99-27-64-41-83-117-86-168v0c-2-69 16-131 41-189 6-12 12-25 20-38 0-1 1-2 1-3 1 0 1-1 1-1 12-19 11-67-48-91-68-26-127-44-161-56-18-6-39-15-56-33-17-19-27-47-26-85v0c3-69 7-101 7-101 2-10 7-26 21-26h765c10 0 19 7 21 16 0 0 9 42 12 112 2 38-9 66-26 85-18 19-40 27-58 33-35 12-97 30-166 56l0 0c-32 12-45 29-50 45-5 15-1 31 6 41 1 2 2 3 3 5 8 13 15 28 21 41 25 58 42 120 41 188 0 15-3 30-7 46-2 11-5 22-9 32-5 12-19 53-59 83-46 34-94 35-109 35z m0-42c13 0 49-1 83-27h0c30-23 39-51 46-67l1 0 0-1c4-11 6-22 9-33 1-9 2-18 2-26v0c1-13 0-26-1-39-97 7-147 44-191 83l-12 10-13-8c-26-17-40-29-65-36 4 41 22 96 65 124 31 19 64 20 76 20z m-65-151c44-38 102-76 198-84-6-31-16-61-29-90-12-26-27-53-45-73-19-19-38-30-59-30-22 0-41 11-59 30-19 20-34 47-46 73-19 44-33 90-36 138 33 7 55 21 76 36z m-14-287c22-19 48-33 79-33 28 0 52 12 73 29v0c9-29 34-56 75-71l0 0c71-28 135-46 168-57 16-6 30-12 40-22 9-10 16-24 15-55-3-56-8-77-10-86h-726c-1 9-3 31-6 85-1 31 6 45 16 55 9 10 22 17 38 22 32 12 93 30 162 57h0c42 16 67 46 76 76z" horiz-adv-x="1000" />

<glyph glyph-name="phone" unicode="&#xe802;" d="M862 154c-61 52-122 83-182 31l-35-31c-26-22-75-128-262 87-188 216-76 249-50 272l36 31c59 52 37 117-6 184l-26 40c-43 67-90 111-149 59l-32-28c-27-19-100-81-118-199-22-142 46-305 201-483 155-179 307-269 451-267 119 1 191 65 214 89l32 28c59 51 22 104-38 156l-36 31z" horiz-adv-x="1000" />

<glyph glyph-name="localization" unicode="&#xe803;" d="M500 850c-197 0-358-161-358-358 0-185 268-385 345-633 2-5 7-9 13-9 5 0 10 4 12 9 75 254 346 448 346 633 0 197-161 358-358 358z m0-629c-155 0-281 126-281 280 0 155 126 281 281 281 155 0 281-126 281-281 0-154-126-280-281-280z" horiz-adv-x="1000" />

<glyph glyph-name="mail" unicode="&#xe804;" d="M664 600h76l-52-297c-6-34-6-59-1-75 6-15 18-23 37-23s38 5 56 14c18 8 35 22 49 40s27 41 36 69c9 28 13 61 13 99 0 54-9 101-27 140-18 39-43 71-75 96-32 25-69 43-112 55s-90 18-139 18c-57 0-110-11-159-31-49-21-92-49-128-84-36-36-64-79-85-128-20-49-30-103-30-160 0-57 8-109 25-154 18-45 43-84 75-115 33-32 74-57 123-74 48-17 104-26 167-26 21 0 45 3 72 8 27 5 51 13 73 23l34-105c-30-15-60-25-91-31-31-6-67-9-107-9-71 0-136 11-197 31-60 21-112 51-156 91-44 40-79 90-104 150-25 59-37 128-37 206 0 80 14 152 43 216 28 64 67 119 115 164 48 45 104 80 167 105 64 24 131 37 202 37 67 0 129-10 187-30 58-19 108-47 150-83 43-36 76-80 100-132 24-52 36-112 36-178 0-47-8-91-25-132-16-41-39-76-67-106-29-30-63-54-101-71-39-18-80-26-123-26-19 0-36 2-51 6-16 4-29 10-40 20-10 9-18 22-23 37-5 15-7 34-5 57h-4c-11-15-23-30-36-45-13-14-27-27-42-39-15-11-32-20-50-27-19-6-39-9-61-9-17 0-34 3-50 11-16 8-30 19-42 32-11 14-21 31-27 51-7 19-11 41-11 65 0 46 7 90 22 132 15 43 35 81 60 114s54 59 87 79c34 20 69 30 106 30 26 0 47-3 65-11 17-8 33-18 48-30l34 35z m-69-133c-10 8-20 14-30 19-10 4-23 6-38 6-22 0-42-6-61-18-19-13-35-29-48-48-14-20-24-42-31-67-8-24-11-48-11-71 0-24 5-44 15-60 9-15 26-23 50-23 11 0 22 4 33 10 12 6 23 14 34 24 11 11 22 22 32 35 10 14 19 27 27 42l28 151z" horiz-adv-x="1000" />

<glyph glyph-name="ok" unicode="&#xe805;" d="M933 534q0-22-16-38l-404-404-76-76q-16-15-38-15t-38 15l-76 76-202 202q-15 16-15 38t15 38l76 76q16 16 38 16t38-16l164-165 366 367q16 16 38 16t38-16l76-76q16-15 16-38z" horiz-adv-x="1000" />

<glyph glyph-name="th" unicode="&#xe806;" d="M286 154v-108q0-22-16-37t-38-16h-178q-23 0-38 16t-16 37v108q0 22 16 38t38 15h178q23 0 38-15t16-38z m0 285v-107q0-22-16-38t-38-15h-178q-23 0-38 15t-16 38v107q0 23 16 38t38 16h178q23 0 38-16t16-38z m357-285v-108q0-22-16-37t-38-16h-178q-23 0-38 16t-16 37v108q0 22 16 38t38 15h178q23 0 38-15t16-38z m-357 571v-107q0-22-16-38t-38-16h-178q-23 0-38 16t-16 38v107q0 22 16 38t38 16h178q23 0 38-16t16-38z m357-286v-107q0-22-16-38t-38-15h-178q-23 0-38 15t-16 38v107q0 23 16 38t38 16h178q23 0 38-16t16-38z m357-285v-108q0-22-16-37t-38-16h-178q-22 0-38 16t-16 37v108q0 22 16 38t38 15h178q23 0 38-15t16-38z m-357 571v-107q0-22-16-38t-38-16h-178q-23 0-38 16t-16 38v107q0 22 16 38t38 16h178q23 0 38-16t16-38z m357-286v-107q0-22-16-38t-38-15h-178q-22 0-38 15t-16 38v107q0 23 16 38t38 16h178q23 0 38-16t16-38z m0 286v-107q0-22-16-38t-38-16h-178q-22 0-38 16t-16 38v107q0 22 16 38t38 16h178q23 0 38-16t16-38z" horiz-adv-x="1000" />

<glyph glyph-name="plus" unicode="&#xe807;" d="M885 359h-350v350c0 11-10 21-21 21s-22-10-22-21v-351h-350c-11 0-21-9-21-21s10-21 21-21h350v-350c0-12 10-22 22-22s21 10 21 22v350h350c12 0 21 10 21 22s-9 21-21 21z" horiz-adv-x="1000" />

<glyph glyph-name="menu" unicode="&#xe808;" d="M857 100v-71q0-15-10-25t-26-11h-785q-15 0-25 11t-11 25v71q0 15 11 25t25 11h785q15 0 26-11t10-25z m0 286v-72q0-14-10-25t-26-10h-785q-15 0-25 10t-11 25v72q0 14 11 25t25 10h785q15 0 26-10t10-25z m0 285v-71q0-14-10-25t-26-11h-785q-15 0-25 11t-11 25v71q0 15 11 26t25 10h785q15 0 26-10t10-26z" horiz-adv-x="857.1" />

<glyph glyph-name="align-justify" unicode="&#xe809;" d="M1000 100v-71q0-15-11-25t-25-11h-928q-15 0-25 11t-11 25v71q0 15 11 25t25 11h928q15 0 25-11t11-25z m0 214v-71q0-15-11-25t-25-11h-928q-15 0-25 11t-11 25v71q0 15 11 25t25 11h928q15 0 25-11t11-25z m0 215v-72q0-14-11-25t-25-11h-928q-15 0-25 11t-11 25v72q0 14 11 25t25 10h928q15 0 25-10t11-25z m0 214v-72q0-14-11-25t-25-10h-928q-15 0-25 10t-11 25v72q0 14 11 25t25 11h928q15 0 25-11t11-25z" horiz-adv-x="1000" />

<glyph glyph-name="list" unicode="&#xe80a;" d="M143 118v-107q0-7-5-13t-13-5h-107q-7 0-13 5t-5 13v107q0 7 5 12t13 6h107q7 0 13-6t5-12z m0 214v-107q0-7-5-13t-13-5h-107q-7 0-13 5t-5 13v107q0 7 5 13t13 5h107q7 0 13-5t5-13z m0 214v-107q0-7-5-12t-13-6h-107q-7 0-13 6t-5 12v107q0 8 5 13t13 5h107q7 0 13-5t5-13z m857-428v-107q0-7-5-13t-13-5h-750q-7 0-12 5t-6 13v107q0 7 6 12t12 6h750q7 0 13-6t5-12z m-857 643v-107q0-8-5-13t-13-5h-107q-7 0-13 5t-5 13v107q0 7 5 12t13 6h107q7 0 13-6t5-12z m857-429v-107q0-7-5-13t-13-5h-750q-7 0-12 5t-6 13v107q0 7 6 13t12 5h750q7 0 13-5t5-13z m0 214v-107q0-7-5-12t-13-6h-750q-7 0-12 6t-6 12v107q0 8 6 13t12 5h750q7 0 13-5t5-13z m0 215v-107q0-8-5-13t-13-5h-750q-7 0-12 5t-6 13v107q0 7 6 12t12 6h750q7 0 13-6t5-12z" horiz-adv-x="1000" />

<glyph glyph-name="minus" unicode="&#xe80b;" d="M901 388h-742c-13 0-23-10-23-23s10-23 23-23h743c12 0 22 10 22 23 0 13-10 23-23 23z" horiz-adv-x="1000" />

<glyph glyph-name="down-open" unicode="&#xe80c;" d="M564 422l-234-224q-18-18-40-18t-40 18l-234 224q-16 16-16 41t16 41q38 38 78 0l196-188 196 188q40 38 78 0 16-16 16-41t-16-41z" horiz-adv-x="580" />

<glyph glyph-name="thumbs-up" unicode="&#xe80d;" d="M0 347l80-472c3-15 15-25 30-25h95l0 0h113c16 0 31 13 31 31v45c38-14 101-35 158-49l0 0c51-14 89-20 118-20h304c53 0 95 23 116 63 14 29 16 63 4 95 19 13 33 35 40 61 9 29 6 60-6 86 19 19 34 46 37 77 3 25-1 49-12 68 24 30 33 70 21 105-13 42-50 69-98 69-13 0-32 0-56-2-28 0-61-1-92-1l0 0c-67 0-100 1-114 3 3 31 19 101 31 154 6 27 13 56 19 83 18 79-24 119-64 129-4 2-12 3-22 3-30 0-79-13-116-92-22-46-49-92-80-136-92-131-200-217-230-238h-277c-9 0-18-4-24-10-6-9-8-18-6-27z m289-25v-264c0-17 14-31 32-31s31 13 31 31v280c38 30 144 117 236 246 34 48 62 97 86 146 19 41 44 62 66 56 20-4 27-23 20-56-6-27-12-55-20-83-35-155-41-189-22-211 12-13 25-21 166-19l0 0c33 0 66 1 94 1 24 0 43 2 55 2 26 0 35-14 40-25 6-18 0-45-21-60-7-6-12-15-13-24 0-8 3-19 10-25 13-13 12-32 12-41-3-23-16-42-33-49-9-5-15-14-16-23-2-10 1-19 9-26 12-11 15-34 10-55-3-9-10-30-29-34-11-3-18-9-23-20-3-8-3-20 5-28 13-19 16-44 7-64-10-19-31-29-61-29h-304c-16 0-46 3-102 18l0 0c-91 23-193 62-195 62-3 1-7 1-10 1-6 0-12-1-18-6-9-6-13-14-13-25v-56h-82l0 0h-68l-71 411h222z m-55-88a49 49 0 0 0-48-49 49 49 0 0 0-49 49 49 49 0 0 0 49 49 49 49 0 0 0 48-49z" horiz-adv-x="1135" />

<glyph glyph-name="thumbs-down" unicode="&#xe80e;" d="M1137 352l-80 473c-3 15-15 25-30 25h-95c0 0 0 0 0 0h-113c-17 0-31-13-31-31v-45c-39 14-101 34-159 49 0 0 0 0 0 0-51 14-90 20-118 20h-304c-54 0-96-23-116-63-15-30-17-64-5-95-19-13-32-36-40-61-9-30-6-61 6-86-19-19-34-46-37-77-3-26 1-49 12-69-24-29-33-69-21-105 13-42 51-68 98-68 13 0 33 0 57 1 28 0 60 2 92 2l0 0c67 0 99-2 114-3-3-32-19-101-31-155-6-27-14-56-19-83-18-79 23-119 63-130 5-1 12-3 23-3 29 0 78 14 116 93 22 46 49 92 80 136 92 131 200 217 230 238h278c9 0 18 5 24 11 6 8 7 17 6 26z m-290 26v264c0 16-13 31-31 31s-31-13-31-31v-281c-39-30-145-117-237-246-34-48-62-97-86-146-19-42-44-63-67-57-19 5-26 24-19 57 6 27 12 55 19 83 36 155 42 189 23 211-12 13-26 21-167 19h0c-33 0-65-1-93-1-24 0-44-2-55-2-27 0-36 14-41 26-5 18 0 44 21 59 8 6 12 15 14 24 0 9-3 19-11 25-13 14-12 33-12 42 3 22 17 41 33 49 9 4 15 13 16 22 2 11-1 19-9 27-11 10-14 34-10 55 3 9 10 30 30 34 10 3 18 9 22 19 3 9 3 21-4 29-14 19-17 44-8 63 11 20 31 30 61 30h305c16 0 46-3 102-18 0 0 0 0 0 0 91-23 193-62 195-62 3-2 7-2 10-2 6 0 12 2 18 6 9 6 13 15 13 26v56h82c0 0 0 0 0 0h69l71-411h-223z m153 87a49 49 0 0 0-49-49 49 49 0 0 0-49 49 49 49 0 0 0 49 49 49 49 0 0 0 49-49z" horiz-adv-x="1138" />

<glyph glyph-name="up-open" unicode="&#xe80f;" d="M564 280q16-16 16-41t-16-41q-38-38-78 0l-196 188-196-188q-40-38-78 0-16 16-16 41t16 41l234 224q16 16 40 16t40-16z" horiz-adv-x="580" />

<glyph glyph-name="comment" unicode="&#xe810;" d="M301 2l0 0c-11 0-21 6-27 16l-69 126h-3c-86 0-156 70-156 156v242c0 87 70 156 156 156h603c86 0 156-69 156-156v-242c0-86-70-156-156-156h-407l-70-126c-6-10-16-16-27-16z m-99 636c-53 0-95-43-95-95v-243c0-53 43-95 95-95h21c11 0 21-6 26-16l52-94 52 94c5 10 15 16 27 16h425c53 0 95 43 95 95v242c0 53-42 95-95 95h-603z" horiz-adv-x="1000" />

<glyph glyph-name="right-open" unicode="&#xe811;" d="M219-115l429 462-429 464c-7 7-7 21 3 28 7 8 21 8 28-3l444-475c7-7 7-22-4-29l-440-475c-3-4-7-7-14-7-3 0-11 2-15 6-13 13-6 27-2 29z" horiz-adv-x="1000" />

<glyph glyph-name="left-open" unicode="&#xe812;" d="M694 809l-430-461 430-465c7-7 7-21-4-28-7-7-21-7-28 3l-444 476c-7 7-7 21 4 28l440 475c4 4 7 7 14 7 4 0 11-2 15-6 14-13 6-26 3-29z" horiz-adv-x="1000" />

<glyph glyph-name="facebook-official" unicode="&#xe813;" d="M810 779q19 0 33-14t14-34v-762q0-20-14-34t-33-14h-218v333h111l16 129h-127v83q0 31 13 46t51 16l68 1v115q-35 5-100 5-75 0-121-44t-45-127v-95h-112v-129h112v-333h-411q-19 0-33 14t-14 34v762q0 20 14 34t33 14h763z" horiz-adv-x="857.1" />

<glyph glyph-name="twitter" unicode="&#xe814;" d="M904 622q-37-54-90-93 0-8 0-23 0-73-21-145t-64-139-103-117-144-82-181-30q-151 0-276 81 19-2 43-2 126 0 224 77-59 1-105 36t-64 89q19-3 34-3 24 0 48 6-63 13-104 62t-41 115v2q38-21 82-23-37 25-59 64t-22 86q0 49 25 91 68-83 164-133t208-55q-5 21-5 41 0 75 53 127t127 53q79 0 132-57 61 12 115 44-21-64-80-100 52 6 104 28z" horiz-adv-x="928.6" />

<glyph glyph-name="youtube" unicode="&#xe815;" d="M542 156v-118q0-37-22-37-13 0-25 12v168q12 12 25 12 22 0 22-37z m189-1v-25h-51v25q0 38 25 38t26-38z m-540 122h60v52h-174v-52h59v-318h55v318z m161-318h50v276h-50v-211q-17-23-32-23-10 0-11 11-1 2-1 20v203h-50v-218q0-28 5-41 7-21 32-21 27 0 57 34v-30z m240 83v110q0 41-5 55-10 31-40 31-28 0-52-30v121h-50v-370h50v27q25-31 52-31 30 0 40 31 5 15 5 56z m188 6v7h-51q0-29-1-34-4-20-22-20-26 0-26 38v49h100v57q0 44-15 65-22 28-59 28-38 0-60-28-15-21-15-65v-96q0-44 16-65 22-29 60-29 40 0 60 30 10 15 12 30 1 5 1 33z m-339 509v117q0 39-24 39t-24-39v-117q0-39 24-39t24 39z m401-419q0-131-14-195-8-33-33-56t-57-25q-102-12-309-12t-310 12q-32 3-57 25t-32 56q-15 62-15 195 0 131 15 195 7 33 32 56t57 26q103 11 310 11t309-11q33-4 58-26t32-56q14-62 14-195z m-557 712h57l-67-223v-151h-56v151q-8 42-34 119-21 57-37 104h60l39-147z m207-186v-97q0-46-16-66-21-29-59-29-37 0-59 29-15 21-15 66v97q0 45 15 66 22 28 59 28 38 0 59-28 16-21 16-66z m187 91v-279h-51v31q-30-35-58-35-25 0-33 21-4 13-4 42v220h51v-205q0-19 0-20 2-12 12-12 15 0 32 24v213h51z" horiz-adv-x="857.1" />

<glyph glyph-name="ico_instagram" unicode="&#xe816;" d="M279 84c-23 7-41 26-46 50-2 11-2 423 0 433 5 24 24 43 47 49 11 3 430 3 441 0 19-5 33-16 42-34l5-10 0-217c1-161 0-219-1-225-1-4-3-11-6-15-4-9-18-22-27-26-15-8-4-7-234-7-198 0-214 0-221 2z m424 62c7 5 7 2 7 129l0 118-26 0c-14 0-25 0-25 0 0-1 1-5 2-10 3-12 3-51 1-64-10-46-35-82-73-106-27-18-55-26-88-26-45 0-84 17-115 48-41 41-56 97-43 156 1 1-3 2-25 2l-25 0 0-120 0-120 4-4 5-5 199 0c182 0 199 0 202 2z m-174 104c34 9 59 33 71 68 5 14 6 40 2 56-7 30-27 55-54 67-18 9-26 11-47 11-31 0-52-8-73-29-39-39-41-102-4-143 15-16 36-28 55-32 5 0 10-1 12-2 7-1 28 1 38 4z m174 208c6 6 6 8 6 51-1 38-1 40-4 43-5 6-9 7-48 7-40 0-44-1-49-7-3-3-3-5-3-45 0-40 0-42 3-46 5-7 6-7 50-6 41 0 41 0 45 3z" horiz-adv-x="1000" />

<glyph glyph-name="ico_google" unicode="&#xe817;" d="M865 378l-70 0 0 71-57 0 0-71-70 0 0-56 70 0 0-71 57 0 0 71 70 0m-452 70l0-88 124 0c-10-53-56-91-124-91-74 0-135 63-135 137 0 75 61 138 135 138 34 0 64-12 88-34l0-1 63 64c-39 36-90 59-151 59-124 0-225-101-225-226 0-125 101-226 225-226 131 0 217 92 217 221 0 16-1 32-4 47 0 0-213 0-213 0z" horiz-adv-x="1000" />

<glyph glyph-name="16_forum" unicode="&#xe818;" d="M500 666c-160 0-289-118-289-263 0-145 130-265 289-265l0-104c164 49 289 205 289 358 0 157-129 274-289 274z m-118-115c7 0 14-2 20-8l97-97 97 97c12 11 29 11 40 0 10-10 10-28 1-38l-97-98 97-97c11-11 11-29 0-40-6-5-13-8-20-8-7 0-14 3-20 8l-97 98-97-98c-6-5-13-8-20-8-7 0-14 3-20 8-10 12-10 30 0 40l96 96-97 97c-11 12-11 30 0 40 6 6 13 8 20 8z" horiz-adv-x="1000" />

<glyph glyph-name="ico_facebook" unicode="&#xe819;" d="M538 53l0 271 91 0 14 106-105 0 0 67c0 31 9 52 53 52l56 0 0 94c-10 2-43 4-82 4-81 0-136-49-136-139l0-78-91 0 0-106 91 0 0-271 109 0z" horiz-adv-x="1000" />

<glyph glyph-name="ico_twitter" unicode="&#xe81a;" d="M782 525c-21-9-43-16-67-18 24 14 42 36 51 63-22-13-47-22-73-28-21 23-51 37-85 37-63 0-115-52-115-116 0-9 1-18 3-26-96 5-181 51-238 121-10-17-16-37-16-58 0-40 20-76 51-97-19 1-36 6-52 15 0-1 0-1 0-2 0-55 40-102 93-113-10-2-20-4-31-4-7 0-14 1-21 2 14-46 57-79 108-80-40-31-90-49-144-49-9 0-18 0-28 1 52-33 112-52 178-52 212 0 328 176 328 329 0 5 0 10 0 15 23 16 42 37 58 60z" horiz-adv-x="1000" />

<glyph glyph-name="print" unicode="&#xe81b;" d="M214-7h500v143h-500v-143z m0 357h500v214h-89q-22 0-38 16t-16 38v89h-357v-357z m643-36q0 15-10 25t-26 11-25-11-10-25 10-25 25-10 26 10 10 25z m72 0v-232q0-7-6-12t-12-6h-125v-89q0-22-16-38t-38-16h-536q-22 0-37 16t-16 38v89h-125q-7 0-13 6t-5 12v232q0 44 32 76t75 31h36v304q0 22 16 38t37 16h375q23 0 50-12t42-26l85-85q15-16 27-43t11-49v-143h35q45 0 76-31t32-76z" horiz-adv-x="928.6" />

<glyph glyph-name="search" unicode="&#xe81c;" d="M423 715c-175 0-316-141-316-316 0-175 141-317 316-317 77 0 148 28 202 73l227-227 41 41-226 227c45 55 73 126 73 203 0 175-142 316-317 316z m0-56c143 0 260-117 260-260 0-144-117-260-260-260-143 0-260 116-260 260 0 143 117 260 260 260z" horiz-adv-x="1000" />

<glyph glyph-name="ico_pinterest_2" unicode="&#xe81d;" d="M514 648c-163 0-245-116-245-214 0-59 22-111 70-131 8-3 15 0 17 9 2 6 6 21 7 27 3 9 2 12-4 20-14 16-23 37-23 67 0 86 65 164 169 164 92 0 142-56 142-131 0-99-44-183-108-183-36 0-63 30-55 66 11 44 31 91 31 122 0 28-15 51-46 51-37 0-67-38-67-88 0-33 11-55 11-55 0 0-37-158-44-186-13-56-2-124-1-130 1-5 6-6 8-2 4 4 47 58 62 112 4 15 24 94 24 94 12-23 47-43 84-43 110 0 185 101 185 235 0 102-86 196-217 196z" horiz-adv-x="1000" />

<glyph glyph-name="dziecko" unicode="&#xe81e;" d="M558 808l-9 0 0 0c-183 0-343-122-406-299-80-7-143-75-143-159 0-84 63-152 143-159 63-177 223-299 406-299l0 0c183 0 343 122 406 299 80 7 143 75 143 159 0 84-63 152-143 159-60 169-210 286-382 299z m-1-58c160-4 302-113 352-277 4-13 16-21 30-20 2 0 3 1 5 1l0 0c53 0 97-46 97-104 0-58-44-103-97-103-2 0-3 0-5 0-13 1-26-7-30-20-51-166-196-277-360-277-163 0-309 111-359 277-4 13-17 22-31 20-1 0-3 0-5 0l0 0c-53 0-96 45-96 103 0 58 43 104 96 104 2 0 4 0 5-1 14-1 26 7 30 21 31 100 97 180 180 228-7-21-9-43-7-65 10-84 87-164 197-164 59 0 101 15 128 42 26 26 33 64 23 96-20 63-101 105-187 63-37-16-10-71 25-52 61 30 98-1 107-29 5-14 3-26-9-38-12-12-38-24-87-24-82 0-134 59-140 113-3 27 5 51 26 71 20 19 55 34 112 35z m-128-382c-21 0-38-17-38-38 0-22 17-39 38-39 22 0 39 17 39 39 0 21-17 38-39 38z m240 0c-21 0-39-17-39-38 0-22 18-39 39-39 21 0 39 17 39 39 0 21-18 39-39 38z m-214-138c-18 0-31-18-27-35 15-63 68-98 120-98 52 0 105 35 122 97 10 37-46 52-56 15-10-38-38-54-66-54-28 0-54 15-63 53-3 14-16 23-30 22z" horiz-adv-x="1098" />

<glyph glyph-name="magd" unicode="&#xe81f;" d="M221 792c-78 0-142-63-142-139 0-66 49-120 112-134l-55-462-7 0c-47 0-85-38-85-84 0-46 38-84 85-84l823 0c47 0 86 38 86 84 0 46-39 84-86 84l-182 0-188 0c-46 0-76 13-96 32-20 18-29 44-29 72l0 237c0 41 8 70 23 87 16 18 40 29 87 29l176 0c0-1 0-1 0-1l0-57-191 0c-14 0-26-12-26-27l0-134c0-132 109-238 244-238 135 0 244 106 244 238l0 134c0 15-11 27-26 27l-191 0 0 57c0 0 0 0 0 1l99 0c78 0 142 62 142 139 0 76-64 139-142 139l-675 0z m0-52l675 0c50 0 89-39 89-87 0-49-39-87-89-87l-329 0c-56 0-100-16-127-47-28-31-37-73-37-121l0-237c0-40 15-80 46-110 31-29 76-47 133-47l370 0c19 0 33-13 33-31 0-18-14-32-33-32l-823 0c-18 0-32 14-32 32 0 18 14 31 32 31l31 0c14 0 25 10 27 23l57 488c1 1 1 2 1 3 0 1 1 7-1 18-1 5-3 12-8 18-6 6-15 11-22 12-1 0-2 0-2 0-45 5-79 41-79 87 0 48 39 87 88 87z m486-58c-16 0-30-13-30-29 0-17 14-30 30-30 17 0 31 13 31 30 0 16-14 29-31 29z m137 0c-16 0-30-13-30-29 0-17 14-30 30-30 17 0 30 13 30 30 1 16-13 29-30 29z m-265-279l382 0 0-108c0-104-85-186-191-186-106 0-191 82-191 186z" horiz-adv-x="1077" />

<glyph glyph-name="rtv" unicode="&#xe820;" d="M1003 817c-6 0-12 0-18-1l-901 0c-52 2-90-49-83-98 0-186-1-372 0-558 4-49 54-81 101-74 303 0 607-1 910 0 49 4 81 54 74 101 0 185 1 370 0 555-4 43-42 73-83 75z m-919-58l919 0c34-3 24-41 26-65l0-526c-3-34-42-23-65-25l-880 0c-34 3-24 41-25 65l0 526c-1 13 11 25 25 25z m760-818c-9 0-18-1-27 0l-573 0 0 0c-24 1-38-31-22-48 14-15 35-9 53-10l577 0c24 1 35 34 17 50-7 6-16 8-25 8z m-298 89c-16 0-29-15-28-30l0-78c-1-19 20-34 38-28 12 4 21 17 19 30l0 77c1 16-13 30-29 29z m-381 652c-17 0-31-15-29-31 0-26 0-52 0-78 1-19 23-32 40-24 12 5 19 18 18 30l0 45 51 0c19 1 32 23 23 41-4 11-17 18-30 17l-73 0 0 0z m757-327l0 0c-16 1-30-15-28-31l0-46-51 0c-19-1-32-23-24-40 5-12 18-19 30-18l74 0c16 0 30 15 29 32 0 25 0 51-1 77-1 15-14 27-29 26z" horiz-adv-x="1085" />

<glyph glyph-name="dagd" unicode="&#xe821;" d="M580 417c-8 0-17-1-26-1l-506 0 0 0c-24 2-38-30-22-47 13-15 34-9 51-10l510 0c24 1 36 34 17 49-7 7-15 8-24 9z m-118-509c-19 1-34-20-28-38 4-12 17-21 30-20l26 0c19 1 32 23 24 40-5 12-17 18-29 18l-23 0 0 0z m-317 0c-19 1-34-20-28-38 4-12 17-21 30-20l26 0c19 1 33 23 24 40-4 12-16 18-28 18l-24 0 0 0z m-1 751c-16 0-29-15-28-31l0-114c-1-19 20-34 38-27 13 3 21 17 20 30l0 112c0 16-14 30-30 30z m0-385c-16 0-29-15-28-31l0-113c-1-19 20-35 38-28 13 4 21 17 20 31l0 112c0 16-14 30-30 29z m384 541c-7 0-15 0-23 0l-391 0c-65 1-120-61-113-125 0-233-1-465 0-697 1-64 64-115 127-108 134 0 268-1 402 1 62 5 109 65 102 126 0 232 0 463 0 695-2 56-50 102-104 108z m-414-58c137 0 274 0 410-1 34-2 55-37 50-68 0-232 1-464 0-695-2-35-37-55-69-50-132 0-265-1-397 0-34 2-54 37-50 69 1 232 0 463 1 695 2 28 27 51 55 50z" horiz-adv-x="632" />

<glyph glyph-name="filter" unicode="&#xe822;" d="M600-33h-200v325l-333 441h866l-333-441v-325z m-167 33h134v303l299 397h-732l299-397v-303z" horiz-adv-x="1000" />

<glyph glyph-name="gry-i-zabawki" unicode="&#xe823;" d="M300 263c-96 0-174-79-174-175 0-97 78-176 174-176 96 0 174 79 174 176 0 96-78 175-174 175z m0-48c70 0 126-57 126-127 0-71-56-127-126-127-69 0-125 56-125 127 0 70 56 127 125 127z m348-17c-78 0-141-64-141-143 0-78 63-143 141-143 78 0 142 65 142 143 0 79-64 143-142 143z m0-49c52 0 93-41 93-94 0-52-41-94-93-94-51 0-93 42-93 94 0 53 42 94 93 94z m-444 474a21 21 0 0 1-21-21l0-165a21 21 0 0 1 21-21l85 0a21 21 0 0 1 22 21l0 165a21 21 0 0 1-22 21l-85 0z m21-43l43 0 0-122-43 0 0 122z m-115 208c-40 0-72-33-72-73l0-49a24 24 0 0 1 24-24l0 0 0-333-2 0 2 0 0 0c-32 3-55-24-55-53l0-72c0-29 24-53 53-53l2 0 0-6c0-28 12-52 31-63 19-11 38-11 55-11l1 48c-16 0-27 2-31 5-4 2-7 3-7 21a24 24 0 0 1 0 0l0 30a24 24 0 0 1-24 24l-27 0c-3 0-5 2-5 5l0 72c0 3 2 4 2 4a24 24 0 0 1 3 0l27 0a24 24 0 0 1 24 25l0 381a24 24 0 0 1-24 25l-1 0 0 24c0 14 10 24 24 24l286 0c14 0 24-10 24-24l0-24-10 0a24 24 0 0 1-24-25l0-231a24 24 0 0 1 24-24l290 0a24 24 0 0 1 17 41c-3 3-13 24-19 44-6 21-9 44-9 49l0 68c0 12 9 21 21 21l93 0c12 0 21-9 21-21l0-68c0-6-4-30-10-51-3-11-7-21-11-28-4-7-8-11-7-10a24 24 0 0 1 13-45l58 0c20 0 35-10 48-32 14-21 24-54 28-89 7-71-13-150-44-177l32-37c54 47 69 137 60 219-4 40-15 79-35 110-19 31-50 54-89 54l-15 0c3 7 6 14 8 21 8 24 13 48 13 65l0 68c0 38-32 69-70 69l-93 0c-38 0-70-31-70-69l0-68c0-16 4-38 11-62 3-9 8-15 11-24l-227 0 0 183 10 0a24 24 0 0 1 24 24l0 49c0 40-33 73-73 73l-286 0z m805-670a24 24 0 0 1-21-36l41-77c0-8-1-13-3-15-2-3-7-6-15-8-7-1-17 0-24 1-8 2-13 6-12 6a24 24 0 0 1-1 0l-95 108a24 24 0 1 1-36-33l94-106c11-13 24-18 38-22 14-3 29-4 44-1 16 2 32 9 44 23 12 14 17 34 15 56a24 24 0 0 1-3 8l-44 83a24 24 0 0 1-22 13z m-105 193a24 24 0 0 1-24-25l0-35a24 24 0 1 1 48 0l0 35a24 24 0 0 1-24 25z m-506-200l-4-48 349-32 5 48-350 32z" horiz-adv-x="1000" />

<glyph glyph-name="tv" unicode="&#xe824;" d="M635 666c-135 0-245-109-245-244 0-135 110-245 245-245 134 0 244 110 244 245 0 135-110 244-244 244z m0-49c108 0 195-87 195-195 0-108-87-196-195-196-109 0-196 88-196 196 0 108 87 195 196 195z m-507 199c-69 0-128-54-128-124l0-540c0-70 58-128 128-128l1010 0 0 0c70 0 128 58 128 128l0 536c0 71-58 128-128 128l-1010 0z m0-49l1010 0c43 0 79-35 79-79l0-536c0-43-36-79-79-79l-1010 0c-43 0-79 36-79 79l0 540c0 43 35 75 79 75z m117-834a25 25 0 1 1 0-49l723 0a25 25 0 0 1 0 49l-723 0z m334 633c-9-3-18-9-23-20a25 25 0 0 1-3-11l0-10 0-207c0-21 15-41 38-41l4 0c3 0 18 2 27 11l-2-2 133 103a25 25 0 0 1 2 2c16 15 16 36 8 52a25 25 0 0 1-4 6l-7 7a25 25 0 0 1-2 2l-137 103a25 25 0 0 1-4 3c-11 5-21 4-30 2z m24-59l112-85-112-87 0 172z" horiz-adv-x="1266" />

<glyph glyph-name="arrow" unicode="&#xe827;" d="M63 414l-63-63 501-501 63 63-439 438 437 436-63 63-250-250z" horiz-adv-x="564" />

<glyph glyph-name="arrow2" unicode="&#xe829;" d="M484 824a7 7 90 0 1-5-2c-150-156-300-311-451-466 0 0 0 0 0 0a7 7 90 0 1-3-5 7 7 90 0 1 0-1 7 7 90 0 1 0 0 7 7 90 0 1 0 0 7 7 90 0 1 0-1 7 7 90 0 1 3-5c150-155 301-310 451-466a7 7 90 1 1 10 11c-149 154-298 307-447 461 149 154 298 308 447 461a7 7 90 0 1-5 13z" horiz-adv-x="516" />

<glyph glyph-name="ico_youtube" unicode="&#xe82a;" d="M618 350l-200-118v234l200-116z m187-110v218c0 0 0 105-105 105h-400c0 0-105 0-105-105v-218c0 0 0-106 105-106h400c0 0 105 0 105 106" horiz-adv-x="1000" />

<glyph glyph-name="laptopy" unicode="&#xe83a;" d="M173 785c-97 2-180-89-172-185 0-126-1-252 0-379 4-29 51-31 57-2 2 113 0 227 1 340-1 46-5 100 33 134 32 37 83 35 128 34 194 0 388 1 582-1 62-4 109-67 102-128 0-126-1-251 1-377 3-29 50-31 56-2 2 113 0 227 1 340 1 53 2 112-34 156-37 52-102 75-164 70-197 0-394 0-591 0z m-143-645c-25 1-33-26-29-47-6-97 84-186 182-178 205 0 410 0 616 0 94 3 171 94 163 187 5 23-16 44-39 38-298 0-596 0-893 0z m31-57c280 0 560 0 841 0-2-63-60-117-123-110-206 0-412-1-617 0-56 5-99 55-101 110z" horiz-adv-x="962" />

<glyph glyph-name="mobilnioki" unicode="&#xe83b;" d="M180 834c-99 3-187-90-180-189 1-203 0-406 1-609 2-97 94-178 190-170 93 1 187-1 280 1 94 7 169 99 161 192-1 202 0 403-1 605-2 97-94 178-190 170-87 0-174 0-261 0z m0-58c95 0 190 1 285 0 65-5 116-69 109-133 0-201 0-402 0-604-1-67-67-122-133-115-91 0-183-1-274 0-65 5-115 69-109 133 0 201 0 403 0 604 2 63 58 117 122 115z m60-71c-29 2-40-43-13-55 27-6 55-1 83-3 31 2 62-2 93 3 28 9 20 55-9 55-51 0-102 0-154 0z m76-633c-41 2-65-55-33-83 27-30 83-6 81 35 1 26-22 48-48 48z" horiz-adv-x="632" />

<glyph glyph-name="oprogramowanie" unicode="&#xe83c;" d="M481 834c-199 1-389-134-453-322-67-182-10-400 137-526 139-125 352-156 520-76 173 76 289 261 283 449-2 190-127 372-305 440-57 23-120 35-182 35z m0-58c38 11 28-18 24-42-8-66-17-132-26-198-102 0-191-96-181-197 0-36 20-72 34-100-56-56-113-113-169-169-115 129-138 329-55 480 71 136 219 226 373 226z m87-9c72-14 140-48 196-96-57-57-114-114-171-171-21 22-70 19-52 59 9 69 18 139 27 208z m237-137c115-130 138-331 54-482-76-144-240-235-402-223 11 80 21 159 32 239 102 0 191 95 181 197 0 36-20 72-34 100 56 56 113 112 169 169z m-322-151c81 3 148-82 126-160-16-77-110-122-180-85-75 32-98 138-44 198 24 29 61 47 98 47z m-108-280c21-22 70-18 52-58-9-69-18-139-27-208-72 14-140 48-196 96 57 57 114 114 171 170z" horiz-adv-x="968" />

<glyph glyph-name="peryferia" unicode="&#xe83d;" d="M204 834c-38 1-64-38-58-74 0-62 0-124 0-186-43-2-96 10-127-30-29-36-15-85-18-128 0-91-1-182 0-273 4-49 54-80 100-74 14-1 36 4 45-2 1-47-2-94 2-141 7-42 52-65 92-60 146 0 292 0 438 0 46 4 74 51 67 94 0 36 0 73 0 109 44 2 97-10 127 30 30 37 16 85 19 128 0 91 1 182 0 273-4 49-54 80-100 74-14 2-36-4-46 3 0 70 2 140-1 210-6 37-45 51-78 47-154 0-308 0-462 0z m0-58c161 0 323 1 484 0 0-68 0-135 0-202-162 0-323 0-484 0 0 67-1 135 0 202z m-122-260c243 0 485 0 727 0 34-3 23-41 24-63 0-101 0-201 0-302-2-33-40-22-63-24-21-4-30 3-25 24 1 36 3 81-33 102-35 22-77 10-115 13-128 0-256 1-383 0-46-4-74-51-68-93-2-15 4-36-2-46-26 3-55-6-79 7-13 24-4 54-7 80 0 93 0 186 0 278 0 13 11 25 24 24z m139-307c150 0 300 0 449 0 27-5 15-38 18-57-1-73 1-146-2-218-13-18-39-7-58-10-135 0-271 0-407 0-27 4-14 37-17 57 1 72-2 145 1 217 3 7 10 11 16 11z" horiz-adv-x="892" />

<glyph glyph-name="granie" unicode="&#xe83e;" d="M248 769c-109 6-205-87-220-192-35-166-37-338-8-505 12-69 64-145 143-141 97 5 164 91 211 168 27 44 48 92 76 136 104 0 208 0 312 0 59-102 106-223 214-284 60-37 145-23 182 39 46 73 44 164 52 247 3 133-1 268-42 395-39 98-156 165-259 126-49-17-91-53-122-95-121 0-242 0-363 0-41 57-104 102-176 106z m0-60c64-1 113-49 147-98 23-14 52-5 78-8 110 1 220 0 331 1 31 13 40 55 71 72 64 55 170 40 216-30 42-59 42-135 52-204 10-126 13-255-16-380-8-50-63-90-112-63-99 49-138 161-191 251-11 22-27 52-57 45-113 0-227 1-341-1-34-14-42-58-62-86-43-80-86-174-175-212-53-24-101 27-107 77-29 149-26 303-3 452 8 63 30 132 90 165 24 14 51 21 79 19z m30-150c-27 0-32-29-29-49-4-15 8-44-6-49-26-3-55 7-78-6-24-18-4-58 24-51 20 0 40 0 60 0 2-28-4-56 4-83 12-28 59-14 54 17 0 22 0 44 0 66 27 2 57-6 82 5 27 16 8 59-22 52-20 0-40 0-60 0-2 28 4 57-3 83-5 10-16 16-26 15z m655 0c-26 0-32-29-28-49-4-15 7-44-6-49-26-3-56 7-79-6-24-18-4-58 24-51 20 0 41 0 61 0 1-28-4-56 3-83 13-28 59-14 54 17 0 22 0 44 0 66 27 2 57-6 82 5 27 16 8 59-22 52-20 0-40 0-60 0-2 28 4 57-3 83-5 10-15 16-26 15z" horiz-adv-x="1211" />

<glyph glyph-name="akcesoria" unicode="&#xe83f;" d="M316 834c-143 3-278-105-308-244-13-65-6-132-8-199 1-80-2-161 2-241 12-145 137-270 282-282 139-17 282 73 328 205 29 74 17 154 20 231-1 82 1 165-2 247-12 145-137 269-282 281-10 2-21 2-32 2z m-29-59c0-46 0-92 0-138-43-13-66-60-61-103 2-41-7-83 11-121 27-55 111-64 148-14 31 37 18 87 21 131 4 40-10 83-48 102-22 3-10 29-13 44 0 33 0 66 0 99 118-11 219-113 228-232 2-111 0-223 1-334 5-79-21-160-80-214-90-89-246-95-342-12-67 52-99 139-94 222 0 111-1 221 1 332 6 122 107 226 228 238z m29-190c32 0 35-34 32-58-1-28 3-57-2-84-16-39-74-14-63 25 2 32-2 65 3 97 5 12 17 20 30 20z" horiz-adv-x="632" />

<glyph glyph-name="foto" unicode="&#xe840;" d="M714 824l0 0c-87 0-171-43-227-108-121 0-242 1-363-1-76-5-132-80-123-154 0-187-1-374 1-561 6-75 80-132 154-123 317 1 634-1 951 1 76 6 132 80 123 154-1 187 1 374-1 561-6 76-80 132-154 123l-134 0c-57 65-140 108-227 108z m0-72l0-1c77 2 148-40 194-100 27-14 60-4 89-7 41-2 82 5 122-5 48-19 38-74 39-115 0-173 0-345-1-517-2-45-49-63-88-58-313 1-626 0-938 1-45 2-63 50-58 89 0 182 0 365 1 547 2 45 49 63 88 58 115 0 230-1 344 1 32 11 44 50 75 65 39 27 86 42 133 42z m0-193c-135 3-258-114-262-249-10-135 100-264 235-274 134-17 269 87 286 221 24 131-70 268-200 295-19 5-39 7-59 7z m-357-19c-4 0-7-1-10-1l-124 0c-37 2-50-55-16-69 35-8 73-2 110-4 27 1 67-8 77 26 8 25-14 47-37 48z m357-53c109 3 204-102 189-210-8-109-122-192-228-167-107 19-178 141-143 243 23 79 100 135 182 134z" horiz-adv-x="1231" />

<glyph glyph-name="komponenty" unicode="&#xe841;" d="M118 834c-68 2-125-63-117-130 0-244-1-488 0-733 5-64 69-112 132-105 193 1 387-1 580 1 64 5 113 68 105 131 0 244 1 487 0 731-5 64-69 112-132 105-189 0-379 0-568 0z m0-58c196 0 393 1 589 0 37-2 59-40 54-74-1-242 0-483-1-725-2-37-40-58-74-53-191 0-383-1-574 0-37 2-59 40-54 74 1 242 0 484 1 725 2 30 29 54 59 53z m60-72c-41 3-65-55-33-82 29-32 88-3 81 39-2 24-24 44-48 43z m463 0c-42 3-65-55-34-82 29-32 88-3 82 39-2 24-24 44-48 43z m-231-101c-126 3-242-102-252-227-6-50 5-102 29-146-20-4-50-9-49-36 1-24 29-33 48-24 35 8 70 17 105 25 2-43 0-86 4-129 7-29 54-24 56 6-3 24-3 42 28 27 125-18 251 72 277 194 30 118-40 250-154 293-29 11-61 17-92 17z m0-57c108 3 204-98 195-206-2-110-111-201-219-184-33-3-42 16-37 44-1 21 4 52-23 59-26 1-51-11-77-15-28 31-38 83-34 126 8 98 97 177 195 176z m0-103c-68 3-118-79-83-137 30-61 125-66 160-8 43 59-5 147-77 145z m0-57c61 0 31-100-21-66-29 18-14 67 21 66z m-232-294c-41 2-65-56-33-83 29-32 88-3 81 39-2 24-24 44-48 44z m463 0c-42 2-65-56-34-83 29-32 88-3 82 39-2 24-24 44-48 44z" horiz-adv-x="819" />

<glyph glyph-name="komputery-serwery" unicode="&#xe842;" d="M118 834c-67 2-125-62-117-129 0-242-1-485 0-728 1-66 66-118 131-111 140 0 281-1 421 1 63 5 112 67 105 130 0 242 0 484 0 726-2 66-66 118-131 111-137 0-273 0-409 0z m0-58c143 0 286 1 429 0 36-2 58-39 53-73 0-242 1-484 0-726-2-36-39-58-73-53-139 0-277-1-415 0-37 2-59 39-54 73 1 242 0 484 1 726 2 30 29 54 59 53z m46-63c-37 1-46-38-43-68 1-103-1-207 1-310 6-34 42-36 70-34 104 1 208-1 312 1 33 6 36 42 34 69-1 103 1 206-1 309-6 33-42 35-70 33-101 0-202 0-303 0z m15-57c100 0 201 0 301 0 0-19 0-38 0-57-100 0-201 0-301 0 0 19 0 38 0 57z m0-115c100 0 201 0 301 0 0-21 0-42 0-63-100 0-201 0-301 0 0 21 0 42 0 63z m0-120c100 0 201 0 301 0 0-21 0-42 0-62-100 0-201 0-301 0 0 20 0 41 0 62z m150-319c-47 2-77-61-44-96 28-38 96-20 102 28 7 34-22 69-58 68z" horiz-adv-x="659" />

<glyph glyph-name="envelope" unicode="&#xe84e;" d="M883 617h-799v-534h833v534h-34z m-34-34l-321-322c-15-14-41-14-55 0l-322 322h698z m-732-13l216-216-216-217v433z m26-453l214 213 92-92c14-14 32-21 51-21s37 7 51 21l92 92 214-213h-714z m740 20l-216 217 216 216v-433z" horiz-adv-x="1000" />

<glyph glyph-name="call" unicode="&#xe84f;" d="M732-100c-76 0-261 97-416 306-145 195-216 336-216 431 0 74 52 110 79 129l7 5c31 22 79 29 97 29 32 0 45-19 53-35 7-14 65-137 71-153 9-23 6-58-22-77l-5-4c-14-9-39-27-43-48-1-11 2-22 11-34 45-60 187-236 212-260 20-18 46-21 63-6 18 15 26 24 26 24l2 1c1 2 15 13 38 13 17 0 33-6 50-17 43-29 140-94 140-94l2-1c12-11 30-42 9-82-22-41-89-127-159-127z m-449 867c-16 0-55-7-77-23l-8-5c-25-18-64-45-64-102 0-88 68-222 209-411 153-207 329-293 388-293 51 0 110 72 130 110 12 23 2 36-2 40-11 7-98 66-139 93-11 8-21 11-31 11-9 0-15-3-17-4-3-3-12-13-28-26-29-25-75-22-107 8-28 27-174 208-216 264-14 20-20 39-17 59 6 35 39 58 57 71l5 3c15 11 12 32 9 38-5 13-61 136-68 150-6 12-11 17-24 17z" horiz-adv-x="1000" />

<glyph glyph-name="basket" unicode="&#xe87e;" d="M103 761l-16-40c24-9 64-29 103-70 34-37 52-74 60-96l0 0 0 0c41-107 80-215 121-322-19-7-34-23-40-43l0-1-16-72c-38-11-65-46-65-86 0-50 41-91 90-91 50 0 90 41 90 91 0 17-5 33-13 46h167c-9-14-14-30-14-47 0-50 41-91 90-91 50 0 91 41 91 91 0 49-40 89-89 90v0h-303l14 59c2 9 10 16 19 16h355c31 0 57 19 67 47v0l96 282 0 1c12 37-16 77-56 77h-488v-43h488c12 0 19-10 15-22l-95-281c-4-11-14-19-27-19h-332c-42 110-83 221-125 333l0 0c-10 27-31 69-69 110v0l0 1c-44 46-91 69-118 80z m227-684h20c22-4 38-23 38-46 0-27-21-48-48-48-26 0-47 21-47 48 0 23 16 42 37 46z m330 0c27 0 48-21 48-47 0-27-21-48-48-48-26 0-47 21-47 48 0 26 21 47 47 47z" horiz-adv-x="1000" />

<glyph glyph-name="alto-phone" unicode="&#xe900;" d="M309 750c-17 0-59-6-88-26l-6-4c-24-17-71-50-71-118 0-86 62-210 190-382 69-92 144-159 210-204s124-66 160-66h6l0 1c30 3 59 20 82 42 26 24 46 52 55 71v0c10 19 11 35 8 49-4 13-11 23-17 28l0 0-2 2 0 0c0 0-85 57-123 82-15 11-31 16-47 16-21 0-34-10-36-12l-1 0-2-2 0 0 0-1c0 0 0 0-1 0-1-1-2-3-4-4-3-4-9-9-17-16-13-11-32-9-49 6-5 5-17 19-33 37s-34 41-53 65c-39 48-80 100-100 126-7 10-10 18-8 26 2 16 23 31 35 40l5 2 0 1c26 18 29 51 20 73-3 8-16 38-30 68s-28 61-32 67c-3 7-9 16-17 22s-19 11-34 11z m0-38h0c5 0 8-1 10-3 2-1 4-4 7-9 3-6 17-37 31-66 7-15 13-30 19-42s9-21 10-23c1-3 2-8 2-14-1-5-3-11-9-15l-4-3c-15-11-46-31-52-65-3-18 3-37 16-55 18-25 60-77 99-126 20-25 40-48 56-67s29-34 36-40c29-28 72-31 100-7 14 11 21 19 24 22 2 1 6 3 12 3 8 0 16-3 25-9 35-24 111-74 122-82 1-1 3-4 4-8 1-5 1-12-4-21-8-16-25-40-46-60s-43-34-63-34c-24 0-76 19-138 60s-134 105-201 195c-123 167-183 285-183 359 0 48 33 70 55 86l7 5v0c18 13 52 19 65 19z" horiz-adv-x="1000" />

<glyph glyph-name="alto_cart" unicode="&#xe902;" d="M84 789l-22-58c23-9 64-30 103-71 35-38 54-76 62-98l0 0 0 0c42-110 82-220 123-329-18-10-33-27-38-48l0-1-17-71c-40-15-69-53-69-97 0-57 47-104 104-104s103 47 103 104c0 14-3 27-8 40h145c-5-13-8-27-8-41 0-57 46-104 103-104s104 47 104 104c0 56-46 102-102 103v0h-306l11 51 0 0c2 6 7 9 12 9h372c36 0 67 24 79 57l0 0 100 295 0 0c15 45-20 93-67 93h-511v-63h511c7 0 10-3 8-11l-100-294c-3-8-11-14-20-14h-342c-43 113-85 228-128 343l0 0c-11 29-33 74-75 119l0 0 0 0c-47 49-97 74-127 86z m237-733h18c18-4 32-20 32-40 0-23-18-41-41-41s-41 18-41 41c0 20 13 36 32 40z m344 0c23 0 41-18 41-41s-18-41-41-41c-23 0-41 18-41 41s18 41 41 41z" horiz-adv-x="1000" />
</font>
</defs>
</svg>
