<?xml version="1.0" encoding="utf-8"?>
<!-- Generator: Adobe Illustrator 19.0.0, SVG Export Plug-In . SVG Version: 6.00 Build 0)  -->
<svg version="1.1" id="Warstwa_1" xmlns="http://www.w3.org/2000/svg" xmlns:xlink="http://www.w3.org/1999/xlink" x="0px" y="0px"
	 viewBox="0 0 283.5 283.5" style="enable-background:new 0 0 283.5 283.5;" xml:space="preserve">
<g id="XMLID_1_">
	<path id="XMLID_9_" d="M211.4,103.3h-3.7v-39c0-24.7-18.2-44.8-40.6-44.8h-54.2c-22.4,0-40.6,20.1-40.6,44.8v39h-3.7
		c-9.4,0-17,7.6-17,17v96.4c0,9.4,7.6,17,17,17h142.8c9.4,0,17-7.6,17-17v-96.4C228.4,110.9,220.7,103.3,211.4,103.3z M81.4,64.3
		c0-19.2,14.1-34.8,31.5-34.8h54.2c17.4,0,31.5,15.6,31.5,34.8v39H81.4V64.3z M218.4,216.7c0,3.9-3.1,7-7,7H68.6c-3.9,0-7-3.1-7-7
		v-96.4c0-3.9,3.1-7,7-7h142.8c3.9,0,7,3.1,7,7V216.7z"/>
	<path id="XMLID_11_" d="M140,163.5c-2.8,0-5,2.2-5,5v28.1c0,2.8,2.2,5,5,5s5-2.2,5-5v-28.1C145,165.8,142.7,163.5,140,163.5z"/>
</g>
</svg>
