<?xml version="1.0" encoding="utf-8"?>
<!-- Generator: Adobe Illustrator 23.0.1, SVG Export Plug-In . SVG Version: 6.00 Build 0)  -->
<svg version="1.1"
	 id="svg2" xmlns:cc="http://creativecommons.org/ns#" xmlns:dc="http://purl.org/dc/elements/1.1/" xmlns:inkscape="http://www.inkscape.org/namespaces/inkscape" xmlns:rdf="http://www.w3.org/1999/02/22-rdf-syntax-ns#" xmlns:sodipodi="http://sodipodi.sourceforge.net/DTD/sodipodi-0.dtd" xmlns:svg="http://www.w3.org/2000/svg"
	 xmlns="http://www.w3.org/2000/svg" xmlns:xlink="http://www.w3.org/1999/xlink" x="0px" y="0px" viewBox="0 0 48 48"
	 style="enable-background:new 0 0 48 48;" xml:space="preserve">
<style type="text/css">
	.st0{fill:none;stroke:#000000;stroke-width:4;stroke-linecap:round;stroke-linejoin:round;stroke-miterlimit:10;}
	.st1{fill:none;stroke:#B40064;stroke-width:4;stroke-linecap:round;stroke-linejoin:round;stroke-miterlimit:10;}
	.st2{fill:none;stroke:#949494;stroke-width:1.5;stroke-linecap:round;stroke-linejoin:round;}
	.st3{fill:#949494;}
</style>
<path class="st0" d="M8.1-1.7"/>
<path class="st1" d="M8.1-1.7"/>
<g>
	<line class="st2" x1="15.7" y1="33.2" x2="15.7" y2="23.6"/>
	<path class="st3" d="M12.9,27.3c0,0.9-0.7,1.6-1.6,1.6c-0.9,0-1.6-0.7-1.6-1.6s0.7-1.6,1.6-1.6C12.2,25.7,12.9,26.4,12.9,27.3"/>
	<path class="st2" d="M34.6,20.2"/>
	<path class="st2" d="M9.3,39.2L6.5,23.6h9.2c0,0,4.4-3.3,8.1-8.6l0,0c1-1.4,2-3,2.8-4.7c1-2.2,2.3-2.7,3.4-2.4
		c1,0.2,1.8,1.2,1.4,3.1c-0.9,4-2.1,8.4-1.6,8.9c0.2,0.3,2.9,0,5.2,0h4.6c2.8,0,3,3.6,1.1,4.9c1.4,1.2,0.8,3.9-0.9,4.7
		c1.3,1.3,0.8,4.3-1.2,4.7c1.3,1.8,0.6,4.7-2.6,5H25.9c-1,0-10.2-3-10.2-3v3H9.3z"/>
	<path class="st2" d="M34.6,20.2"/>
</g>
</svg>
